
<svg id="_Слой_1" data-name="Слой_1" xmlns="http://www.w3.org/2000/svg" xmlns:i="http://ns.adobe.com/AdobeIllustrator/10.0/" version="1.1" viewBox="0 0 405.5 122">
  <!-- Generator: Adobe Illustrator 29.1.0, SVG Export Plug-In . SVG Version: 2.1.0 Build 142)  -->
  <defs>
    <style>
      .st0 {
        fill: #b50f3e;
      }
    </style>
  </defs>
  <g>
    <path class="st0" d="M5.59,15.16c2.62-2.24,5.44-4.01,8.44-5.32,3.01-1.31,6.21-2.1,9.6-2.37,3.39-.27,6.59.4,9.6,2.02,1.85.93,2.62,2.08,2.31,3.47-1.46,3.01-2.56,6.15-3.3,9.43-.73,3.28-1.12,6.79-1.16,10.53-.04,3.74.02,6.94.17,9.6.15,2.66.48,6.25.98,10.76.5,4.51.83,7.81.98,9.89.38,3.93.27,7.27-.35,10.01-.62,2.74-2.24,4.84-4.86,6.3-4.55,2.62-9.6,2.91-15.15.87-5.55-2.04-9.18-5.57-10.87-10.58-.62-11.72,1.91-19.62,7.58-23.71,5.67-4.09,5.73.27.17,13.07-.08,4.55.75,7.88,2.49,10,1.73,2.12,3.32,3.62,4.74,4.51,1.43.89,3.07,1.21,4.92.98.54-.16,1.27-1.2,2.2-3.12.69-2.31.92-5.65.69-10-.23-4.36-.52-7.67-.87-9.95-.35-2.27-.91-5.61-1.68-10,0-.15.04-.46.12-.93.38-1.7.31-2.5-.23-2.43l-.69.35c-5.01,3.01-9.41,3.74-13.19,2.2-2.31-.93-4.51-3.28-6.59-7.06C.19,30.43-.21,27.11.44,23.72c.65-3.39,2.37-6.25,5.15-8.56ZM12.99,18.28c-2.78,2.39-3.93,5.17-3.47,8.33.77,5.32,2.24,7.98,4.4,7.98,1.31.08,2.41-.31,3.3-1.16.89-.85,1.83-2.37,2.83-4.57,1-2.2,1.62-3.53,1.85-3.99.69-1.16,1.1-2.64,1.21-4.45.12-1.81-.17-3.26-.87-4.34-.46-.93-1.29-1.29-2.49-1.1-1.2.19-2.37.58-3.53,1.16-1.16.58-2.24,1.29-3.24,2.14Z"/>
    <path class="st0" d="M160.8,30.47c0,.98.09,2.62.28,4.93.18,2.3.24,4.27.18,5.89-.06,1.63-.34,3.08-.83,4.37-.55,1.41-1.8,2.07-3.73,1.98-1.93-.09-3.12-.9-3.54-2.44-.25-.86-.17-2.09.23-3.68.4-1.6.6-2.7.6-3.31-.12-.12-.28-.37-.46-.74-.18-.24-.31-.37-.37-.37-.12.18-.41.68-.87,1.47-.46.8-.77,1.33-.92,1.61-.15.28-.46.75-.92,1.43-.46.68-.81,1.14-1.06,1.38-.25.25-.6.63-1.06,1.15-.46.52-.87.87-1.24,1.06-.37.18-.81.41-1.33.69-.52.28-1.03.43-1.52.46-.49.03-1.03.03-1.61,0-.58-.03-1.21-.14-1.89-.32-.98-1.53-1.79-3.14-2.44-4.83-.64-1.69-1.12-3.7-1.43-6.03-.31-2.33-.52-4.03-.64-5.11-.12-1.07-.25-3.16-.37-6.26-.12-3.1-.18-4.89-.18-5.38-.61-2.7-.22-4.26,1.2-4.69,3.93-1.04,6.01-.77,6.26.83.37,2.33.64,6.02.83,11.05.18,5.03.55,8.87,1.1,11.51,1.72-1.9,3.41-5.05,5.06-9.44,1.66-4.39,2.95-7.35,3.87-8.88.74-1.23,1.86-1.87,3.36-1.93,1.5-.06,2.53.58,3.08,1.93.37,1.04.58,2.19.64,3.45.06,1.26.03,2.76-.09,4.51-.12,1.75-.18,2.99-.18,3.73ZM151.57,12.44h-.47c-1.03-.08-2.04-.64-3.04-1.66-1-1.02-1.84-2.21-2.52-3.57-.68-1.35-1.05-2.57-1.11-3.64-.04-1.52.53-2.5,1.71-2.95.42-.18.86-.28,1.32-.3,1.62-.05,3.06.99,4.32,3.11,1.37-1.85,2.8-2.8,4.28-2.85.51-.01,1.04.09,1.59.32.95.44,1.45,1.21,1.48,2.31-.15,1.87-1.11,3.87-2.9,6-1.54,1.83-3.09,2.91-4.65,3.22Z"/>
    <path class="st0" d="M202.05,36.54c-.06,1.72-.18,3.21-.37,4.46-.18,1.26-.55,2.55-1.1,3.87-.55,1.32-1.5,2.33-2.85,3.04-1.35.71-3.13,1.03-5.34.97-.74-1.66-.69-4.4.14-8.24.83-3.83.6-6.27-.69-7.32-.18-.37-.86-.64-2.03-.83-1.17-.18-2.38-.14-3.64.14-1.26.28-2.07.84-2.44,1.7-.55,1.04-1,2.52-1.33,4.42-.34,1.9-.66,3.64-.97,5.2-.31,1.56-.78,3.08-1.43,4.56-.64,1.47-1.69,2.55-3.13,3.22-1.44.67-3.27.83-5.48.46,0-1.47.49-4.33,1.47-8.56.98-4.23,1.16-7.49.55-9.76,0-.12-.31-.41-.92-.87-.61-.46-.89-.9-.83-1.34.12-.49.61-1.1,1.47-1.84.86-.74,1.32-1.26,1.38-1.56.12-1.53-.02-3.65-.41-6.35-.4-2.7-.61-4.82-.64-6.35-.03-1.53.38-3.56,1.24-6.08.31-.61,1.07-1.01,2.3-1.2,1.23-.18,2.47-.06,3.73.37,1.26.43,1.98,1.17,2.16,2.21.31,2.09.41,4.83.32,8.24-.09,3.41.29,6.03,1.15,7.87.49.8,1.76,1.06,3.82.78,2.06-.28,3.39-.75,4-1.43.67-.92,1.03-1.96,1.06-3.13.03-1.16-.08-2.22-.32-3.18-.25-.95-.61-2.16-1.1-3.64-.49-1.47-.83-2.58-1.01-3.31-.18-.98.52-1.99,2.12-3.04,1.41-.55,2.9-.77,4.46-.64,1.57.12,2.62.58,3.18,1.38.98,1.35,1.55,2.84,1.7,4.46.15,1.63.12,3.62-.09,5.98-.22,2.36-.29,4.04-.23,5.02.12.43.32,1.06.6,1.89.28.83.44,1.4.51,1.7.06.31-.03.8-.28,1.47-.25.68-.37,1.17-.37,1.47-.18.8-.31,2.06-.37,3.77Z"/>
    <path class="st0" d="M355.27,5.18c1.02-.02,1.75.1,2.2.36.78,1.51,3.28,8.27,7.5,20.27,4.22,12.01,6.14,18.55,5.77,19.63.24-.17-.18.06-1.26.71-1.09.65-2.28.87-3.57.67-1.29-.2-1.99-.46-2.11-.79-2.5-7.62-5.15-14-7.93-19.13-.45,1.91-.88,3.57-1.3,5-.42,1.43-.95,2.89-1.6,4.38-.65,1.5-1.11,2.54-1.39,3.13-.28.59-.96,1.9-2.03,3.94-1.07,2.04-1.78,3.43-2.14,4.16-.74.93-1.68,1.42-2.83,1.47-1.15.05-2.22-.26-3.2-.92-1.57-.91-1.82-2.87-.73-5.9.9-2.45,2.09-5.69,3.56-9.69,1.47-4.01,2.61-7.11,3.42-9.31.81-2.2,1.73-4.95,2.77-8.24,1.04-3.29,1.96-6.5,2.76-9.61l2.12-.13Z"/>
    <path class="st0" d="M386.71,29.09c-1.78-.61-3.47-1.47-5.06-2.58-2.21-1.47-3.74-3.25-4.6-5.34-.86-1.96-.68-3.99.55-6.08,1.23-2.09,2.91-3.77,5.06-5.06,3.44-2.03,6.7-3.54,9.8-4.56,3.1-1.01,6.24-1.27,9.44-.78.67.12,1.35.8,2.03,2.03.18,1.41.35,4.16.51,8.24.15,4.08.11,6.52-.14,7.32-.25.8-.4,1.84-.46,3.13-.06,1.29.06,2.82.37,4.6.55.86.89,2.84,1.01,5.94.12,3.1-.03,5.11-.46,6.03-.31,1.17-1.15,2.15-2.53,2.95-1.38.8-2.59.71-3.64-.28-.98-.86-1.5-1.89-1.56-3.08-.06-1.2.12-2.35.55-3.45.43-1.1.69-2.32.78-3.64.09-1.32-.2-2.53-.87-3.64-1.41,0-2.76-.09-4.05-.28-1.04,1.9-2.58,4.33-4.6,7.27-2.76,3.93-4.65,6.28-5.66,7.04-1.01.77-1.84,1.23-2.49,1.38-.64.15-1.47.11-2.49-.14-1.01-.25-1.58-.51-1.7-.78-.12-.28-.2-.54-.23-.78-.03-.24.03-.61.18-1.1.15-.49.51-1.01,1.06-1.56,3.07-5.28,6.14-9.54,9.2-12.8ZM396.19,11.05c-3.07.18-5.91.98-8.51,2.39-2.61,1.41-3.85,3.19-3.73,5.34.06,1.35.89,2.61,2.49,3.77,1.6,1.17,3.48,1.99,5.66,2.49,2.18.49,4.22.64,6.12.46,0-6.5-.68-11.32-2.03-14.45Z"/>
    <path class="st0" d="M63.99,49.59c-1.52-.13-2.41-.69-2.68-1.69-.42-1.84-.58-4.42-.47-7.75.1-3.33-.18-5.91-.87-7.75-.31.58-.85,1.61-1.61,3.11-.76,1.5-1.37,2.66-1.81,3.5-.45.84-1.04,1.84-1.77,2.99-.74,1.15-1.47,2.15-2.2,2.99-.68.74-1.65,1.06-2.91.98s-2.23-.51-2.91-1.3c-2.15-2.15-3.23-5.93-3.23-11.33v-1.73c0-3.67.03-6.49.08-8.46.05-1.97.32-4.47.79-7.52.47-3.04,1.15-5.75,2.05-8.11.37-1,1.39-1.42,3.07-1.26,1.68.16,2.6.79,2.75,1.89.37,2.26.08,5.47-.87,9.64s-1.42,7.1-1.42,8.78c0,.37-.04,1.34-.12,2.91-.08,1.57-.07,2.85.04,3.82.11.97.34,1.96.71,2.95,1.63-2.15,3.31-5.76,5.04-10.82,1.73-5.06,3.41-8.67,5.04-10.82.52-.52,1.47-.79,2.83-.79s2.13.37,2.28,1.1c.84,4.04,1.4,9.71,1.69,17,.29,7.29.59,12.17.91,14.64,0,.63-.21,1.18-.63,1.65-1,1.05-2.26,1.51-3.78,1.38Z"/>
    <path class="st0" d="M94.08,47.46c-2.9,1.54-6,2.25-9.29,2.13-3.3-.11-6.34-.97-9.12-2.56-1.37-1.02-1.78-2.33-1.24-3.92.54-1.59,1.52-2.59,2.94-2.98,1.36-.51,3.54-.41,6.52.3,2.98.71,5.22.75,6.69.13.57,0,1.11-.31,1.62-.94.17-.17.2-.31.09-.43-.57-1.59-1.83-2.98-3.79-4.18s-3.87-2.09-5.71-2.69c-1.85-.6-3.34-1.56-4.48-2.9-1.14-1.34-1.31-3-.51-4.99.68-1.25,2.3-2.54,4.86-3.88,2.56-1.34,4.06-2.2,4.52-2.6-1.02-.57-2.56-.85-4.6-.85s-3.5-.31-4.35-.94c-1.48-1.42-1.76-3.08-.85-4.99.91-1.9,2.33-2.86,4.26-2.86.34.06,1.11.13,2.3.21s2.03.16,2.52.21c.48.06,1.24.17,2.26.34s1.83.34,2.43.51c.6.17,1.29.43,2.09.77.8.34,1.51.74,2.13,1.19,1.25.85,2.03,1.81,2.34,2.86.31,1.05.16,2.13-.47,3.24-.63,1.11-1.31,2.09-2.05,2.94-.74.85-1.72,1.88-2.94,3.07-1.22,1.19-2.06,2.08-2.52,2.64.28.17.64.57,1.07,1.19.43.63.78,1,1.07,1.11,2.27.46,4.28,1.36,6.01,2.73,1.73,1.36,2.88,3.04,3.45,5.03,1.14,4.15-1.28,7.85-7.25,11.09Z"/>
    <path class="st0" d="M110.04,22.51c.25-.67.73-2.42,1.45-5.25.72-2.83,1.6-4.86,2.64-6.07.4-.5,1.22-.84,2.49-1.01,1.26-.17,2.09.06,2.49.69.94,1.68,1.81,3.53,2.6,5.57.79,2.04,1.4,3.82,1.82,5.35.42,1.53.98,3.55,1.67,6.04.69,2.5,1.24,4.42,1.63,5.76,0,.29.33.59,1,.88.67.29,1.1.57,1.3.82.49.71.49,1.28,0,1.7-.84,1.55-.72,3.61.37,6.17,1.09,2.56,1.53,4.38,1.34,5.47-.15.88-.95,1.44-2.41,1.67-1.46.23-2.56-.05-3.3-.85-.69-.8-1.25-2.39-1.67-4.78-.42-2.39-1.3-3.92-2.64-4.59-1.39-.67-3.02-.91-4.9-.72-1.88.19-3.49.72-4.83,1.6-.59.38-1.09,1.06-1.49,2.05-.4.99-.68,1.95-.85,2.89-.17.94-.5,1.86-.97,2.74-.47.88-1.09,1.42-1.86,1.6-.77.19-1.94.03-3.53-.47-.3-1.17-.31-2.39-.04-3.65.27-1.26.74-2.7,1.41-4.31.67-1.61,1.1-2.84,1.3-3.68,1.53-5.92,3.19-11.12,4.98-15.61ZM114.13,28.18c-.1.55-.32,1.23-.67,2.05-.35.82-.66,1.49-.93,2.01-.27.53-.43,1.08-.48,1.67-.05.59.17.94.67,1.07.84.5,2.15.71,3.94.63,1.78-.08,2.82-.57,3.12-1.45.2-.63.3-1.31.3-2.05s-.03-1.34-.07-1.82c-.05-.48-.27-1.19-.67-2.11-.4-.92-.66-1.52-.78-1.79-.12-.27-.5-.96-1.11-2.08-.62-1.11-.95-1.71-1-1.79-1.14,1.17-1.91,3.06-2.3,5.66Z"/>
    <path class="st0" d="M279.78,30.12c-.05-.29-.17-.81-.37-1.56-.2-.75-.27-1.27-.22-1.56.05-.34.19-.96.44-1.86.24-.9.41-1.59.51-2.07.05-1.07-.03-2.86-.22-5.38-.2-2.52-.22-4.67-.07-6.44.15-1.77.63-3.38,1.47-4.84.49-.82,1.39-1.31,2.71-1.46,1.32-.15,2.59.07,3.81.65,1.32,1.12,1.91,2.21,1.76,3.27-.15.83-.43,2.03-.84,3.6-.42,1.58-.73,2.87-.95,3.89-.22,1.02-.31,2.17-.26,3.46.05,1.29.34,2.41.88,3.38.54.73,1.69,1.24,3.45,1.53s2.83.02,3.23-.8c.73-1.99,1.06-4.83.99-8.51-.07-3.69.01-6.65.26-8.88.19-1.12.82-1.92,1.87-2.4,1.05-.48,2.1-.63,3.15-.44,1.05.19,1.72.63,2.02,1.31.73,2.72,1.07,4.9,1.03,6.55-.05,1.65-.23,3.93-.55,6.84-.32,2.91-.43,5.19-.33,6.84.05.34.44.91,1.17,1.71.73.8,1.15,1.47,1.25,2,.05.44-.18.91-.7,1.42-.51.51-.8.84-.84.98-.49,2.43-.32,5.92.51,10.48.83,4.56,1.25,7.64,1.25,9.24-1.91.39-3.47.23-4.69-.47-1.22-.7-2.1-1.86-2.64-3.46-.54-1.6-.94-3.24-1.21-4.91-.27-1.67-.55-3.54-.84-5.6-.29-2.06-.66-3.65-1.1-4.77-.34-.97-1.05-1.6-2.13-1.89-1.08-.29-2.1-.33-3.08-.11-.98.22-1.57.52-1.76.91-1.08,1.12-1.26,3.74-.55,7.86.71,4.12.74,7.08.11,8.88-1.86.05-3.37-.3-4.54-1.05-1.17-.75-1.99-1.84-2.46-3.27-.46-1.43-.77-2.81-.92-4.15-.15-1.33-.25-2.93-.29-4.8-.05-1.87-.15-3.24-.29-4.11Z"/>
    <path class="st0" d="M315.33,16.69c0-.24-.06-.8-.18-1.66-.12-.86-.18-1.49-.18-1.89s.06-.89.18-1.47c.12-.58.34-1.03.64-1.33.92-1.41,2.33-2.15,4.23-2.21,1.9-.06,3.22.68,3.96,2.21.86,1.72,1.26,4.19,1.2,7.41-.06,3.22,0,5.91.18,8.05.06.25.15.41.28.51.12.09.26.11.41.05.15-.06.29-.14.41-.23.12-.09.26-.23.41-.41.15-.18.26-.31.32-.37.31-.67.93-2.12,1.89-4.33.95-2.21,1.69-3.82,2.21-4.83.52-1.01,1.32-2.21,2.39-3.59,1.07-1.38,2.26-2.44,3.54-3.18.86-.31,1.87-.49,3.04-.55,1.16-.06,2.1.31,2.81,1.1.7.8.72,1.84.05,3.13-.74,1.41-1.96,3.61-3.68,6.58-1.72,2.98-3.05,5.37-4,7.18-.95,1.81-1.9,4.11-2.85,6.9-.95,2.79-1.52,5.45-1.7,7.96-.25,3.19-1.37,7.04-3.36,11.55-2,4.51-4.13,8.21-6.4,11.09-1.72,2.09-4.14,3.16-7.27,3.22-3.13.06-5.28-1.01-6.44-3.22-2.15-4.3-1.99-7.18.46-8.65,1.1-.68,2.3-.6,3.59.23,1.29.83,2.06,1.95,2.3,3.36,1.29-.98,2.3-1.83,3.04-2.53.74-.71,1.33-1.55,1.79-2.53.46-.98.75-1.72.87-2.21.12-.49.34-1.55.64-3.18.31-1.63.55-2.93.74-3.91.37-1.9-.12-4.37-1.47-7.41-1.35-3.04-2.09-5.11-2.21-6.21-.18-1.66-.49-4.1-.92-7.32-.43-3.22-.74-5.66-.92-7.32Z"/>
    <path class="st0" d="M227.19,30.06c.68-4.72,2.65-8.57,5.89-11.57.1-.1.5-.48,1.2-1.14.7-.66,1.15-1.08,1.34-1.26.19-.18.63-.56,1.31-1.14.68-.58,1.17-.98,1.46-1.18.29-.2.77-.52,1.42-.96.66-.44,1.18-.72,1.58-.85.39-.13.91-.31,1.55-.52.64-.21,1.19-.32,1.66-.34.47-.01,1,.03,1.6.11.34.05.42.09.98.22.84.18,1.42.28,1.57.3.61.11,3.54.92,4.34,3.26.74,2.15-.54,4.97-2.17,5.43-1.23.35-1.8-.9-4.34-1.09-1.54-.11-2.76.24-3.3.41-.41.13-1.82.55-3.45,1.86-3.6,2.9-5.45,5.92-5.58,9.03-.13,2.77.44,5.06,1.72,6.86.36.59.84,1.08,1.44,1.49.6.41,1.13.69,1.58.85.45.16,1.12.37,2.02.62.9.25,1.52.45,1.87.59,1.15.42,2.28.29,3.4-.38,1.12-.67,2.24-1.46,3.36-2.38,1.12-.92,2.09-1.41,2.94-1.48.74-.07,1.25.12,1.53.56.28.44.36,1.01.23,1.7-.13.7-.3,1.33-.51,1.9-.21.57-.43,1.06-.67,1.46-2.81,4.52-8.23,5.73-16.24,3.64-3.43-.91-6.04-2.88-7.82-5.91-1.78-3.03-2.41-6.4-1.9-10.12Z"/>
  </g>
  <g>
    <path class="st0" d="M131.37,103.88h-.16c-.87,0-1.69-.31-2.46-.93-.15-.15-.3-.31-.43-.48l-.1-.08c-.37-.54-.56-1.1-.56-1.66,0-1.75-.02-3.49-.07-5.21-.09-4.57-.5-9.46-1.24-14.69v-.17c0-.71.36-1.41,1.08-2.09.74-.6,1.65-.91,2.72-.93.9,0,1.74.31,2.52.93.35.28.6.62.75,1.01.2.3.29.64.29,1.01,1.05-.9,2.22-1.65,3.51-2.25,1.33-.58,2.48-.95,3.44-1.1.66-.13,1.34-.2,2.06-.2s1.44.1,2.1.31c.92.26,1.73.68,2.43,1.24,1.18,1.05,1.81,2.37,1.9,3.95v.31c0,.7-.09,1.38-.26,2.06-.09.41-.28.78-.59,1.1-.83.81-1.8,1.21-2.92,1.21-.9,0-1.66-.22-2.29-.65-.39-.26-.71-.56-.95-.9-.33-.47-.49-1.05-.49-1.75l.03-.37c-.57.17-1.25.5-2.03.99-.41.3-.81.63-1.18.99-.35.47-.67.96-.95,1.47-.98,2.22-1.65,4.51-2,6.88-.31,2.26-.46,4.54-.46,6.85,0,.85-.37,1.58-1.1,2.2-.73.62-1.6.94-2.61.96Z"/>
    <path class="st0" d="M99.32,82.43c.05-.32-.12-.84-.52-1.56-.4-.72-.47-1.29-.2-1.72.69-.59,1.07-1.75,1.12-3.49.05-1.74.53-2.9,1.44-3.49,1.12-.8,2.24-1.23,3.36-1.28,1.12-.05,2.08.37,2.88,1.28.43.43.67,1.18.72,2.24.05,1.07.19,1.66.4,1.76,1.92.21,3.69.52,5.29.92,1.6.4,3.24.98,4.93,1.72,1.68.75,2.96,1.82,3.85,3.21.88,1.39,1.21,2.99,1,4.81-.21,2.03-.79,3.73-1.72,5.09-.94,1.36-2.16,2.4-3.69,3.12-1.52.72-2.99,1.28-4.41,1.68s-3.1.81-5.05,1.24c-1.95.43-3.46.83-4.53,1.2-.64,3.9-.9,6.85-.76,8.85.13,2,.76,4.93,1.88,8.77,0,.16.11.39.32.68.21.29.47.64.76,1.04.29.4.52.73.68,1,.64,1.33.11,2.16-1.6,2.48-1.71.32-3.15.21-4.33-.32-.27-.11-.53-.25-.8-.44-.27-.19-.49-.36-.68-.52-.19-.16-.36-.4-.52-.72-.16-.32-.29-.58-.4-.76-.11-.19-.23-.49-.36-.92-.13-.43-.23-.75-.28-.96-.05-.21-.12-.56-.2-1.04s-.12-.81-.12-1-.04-.55-.12-1.08c-.08-.53-.12-.85-.12-.96-.27-2.03-.43-4.1-.48-6.21-.05-2.11.01-4.25.2-6.41.19-2.16.37-4.13.56-5.89.19-1.76.44-3.87.76-6.33.32-2.46.56-4.46.72-6.01ZM107.82,82.83c-1.07,1.07-1.84,2.84-2.32,5.33-.48,2.48-.29,3.97.56,4.45,1.65.75,3.65.51,5.97-.72,2.32-1.23,3.65-3.1,3.97-5.61.32-1.87-.59-3.02-2.72-3.44-.96-.43-1.96-.67-3-.72-1.04-.05-1.86.19-2.44.72Z"/>
    <path class="st0" d="M166.75,90.85c.5-3.48,1.95-6.33,4.35-8.54.07-.07.37-.36.88-.84.52-.49.85-.8.99-.93.14-.13.46-.41.97-.84.5-.43.86-.72,1.08-.87.22-.15.57-.39,1.05-.71.49-.32.87-.53,1.16-.63.29-.1.67-.23,1.14-.38.47-.16.88-.24,1.23-.25.35,0,.74.02,1.18.08.25.04.31.07.73.16.62.14,1.05.2,1.16.22.45.08,2.62.68,3.21,2.4.54,1.58-.4,3.67-1.6,4.01-.91.26-1.33-.66-3.21-.8-1.14-.08-2.04.18-2.44.3-.31.09-1.35.41-2.54,1.37-2.65,2.14-4.03,4.37-4.12,6.67-.1,2.05.32,3.74,1.27,5.07.26.43.62.8,1.07,1.1.45.3.83.51,1.17.63.33.12.83.27,1.49.46.66.19,1.12.33,1.38.43.85.31,1.68.22,2.51-.28.83-.49,1.65-1.08,2.48-1.76.82-.68,1.55-1.04,2.17-1.09.55-.05.92.09,1.13.41.21.32.26.74.17,1.26-.1.51-.22.98-.38,1.41-.15.42-.32.78-.5,1.08-2.08,3.34-6.08,4.23-11.99,2.69-2.54-.67-4.46-2.12-5.77-4.36-1.31-2.23-1.78-4.73-1.41-7.47Z"/>
    <path class="st0" d="M190.53,85.29c-.09-3.37.97-6.1,3.17-8.17,2.2-2.07,4.95-2.88,8.23-2.43,2.7.36,5.05,1.67,7.05,3.91,2,2.25,2.98,4.77,2.94,7.56-.4,1.26-2.26,2.87-5.57,4.83-3.31,1.96-5.19,3.16-5.64,3.61-.23.05-.51.23-.84.54-.34.32-.42.61-.24.88.54.99,1.21,1.69,2.03,2.09.81.41,1.72.52,2.73.34,1.01-.18,1.93-.43,2.77-.74.83-.31,1.81-.76,2.94-1.35,1.17.9,1.54,2.1,1.11,3.61-.43,1.51-1.34,2.37-2.73,2.6-.09,0-.59.08-1.48.24-.9.16-1.46.25-1.69.27-.23.02-.72.07-1.48.14s-1.35.07-1.75,0c-.4-.07-.9-.16-1.48-.27-.58-.11-1.15-.28-1.69-.51-5.4-2.43-8.19-8.14-8.37-17.14ZM197.88,88.74c4.05-.18,6.48-1.6,7.29-4.25.72-1.57.13-2.78-1.75-3.61-1.89-.83-3.58-.87-5.06-.1-.9.5-1.5,1.38-1.79,2.67s-.28,2.48.03,3.58c.31,1.1.74,1.68,1.28,1.72Z"/>
    <path class="st0" d="M280.1,78.62c.37.16,1.11.46,2.23.88,1.12.43,1.94.76,2.47,1.01.53.24,1.14.64,1.83,1.19.69.55,1.2,1.17,1.52,1.86.24.45.23,1.02-.03,1.71-.27.69-.58,1.16-.95,1.4-.85.53-2.01.39-3.47-.43-1.46-.81-2.82-1.56-4.05-2.26-1.24-.69-2.73-.61-4.48.24-.77.53-.79,1.32-.06,2.38.73,1.06,1.5,1.73,2.32,2.01,4.23,1.5,7.44,3.27,9.63,5.3.81.98,1.17,2.11,1.07,3.41-.1,1.3-.52,2.54-1.25,3.72-1.06,1.79-2.78,3.2-5.18,4.24-2.4,1.04-4.86,1.29-7.38.76-2.52-.53-4.35-1.97-5.49-4.33-.41-.81-.27-1.62.43-2.41.69-.79,1.5-1.23,2.44-1.31.53-.04,1.05.37,1.55,1.22.51.85.92,1.36,1.25,1.52,1.42.81,3.09.84,5,.09,1.91-.75,2.87-1.96,2.87-3.63,0-.41-.32-.88-.95-1.43-.63-.55-1.25-.96-1.86-1.25-.45-.2-1.44-.62-2.99-1.25-1.54-.63-2.65-1.11-3.32-1.43-.67-.32-1.46-.87-2.38-1.65-.91-.77-1.6-1.65-2.04-2.62-.73-1.5-.43-3.1.91-4.79,1.34-1.69,3.08-2.95,5.21-3.78,2.13-.83,3.85-.97,5.15-.4Z"/>
    <path class="st0" d="M156.89,102.68h-.15c-.79,0-1.53-.28-2.23-.84-.61-.58-.94-1.25-.98-2.02v-1c0-1.8.22-5.78.65-11.94.2-2.01.3-4.01.3-6v-.46c0-.8.32-1.48.96-2.03.64-.55,1.47-.84,2.48-.85.81,0,1.56.28,2.25.84.65.6.98,1.28.98,2.04v.64c0,.99-.04,1.98-.12,2.99-.16,2.82-.35,5.66-.56,8.5l-.03.66c-.16,1.75-.24,3.5-.24,5.26l.03,1.43c0,.68-.33,1.33-.98,1.94-.67.56-1.46.84-2.37.84Z"/>
    <path class="st0" d="M159.56,74.28h-.39c-.86-.07-1.71-.53-2.55-1.39-.84-.86-1.54-1.86-2.11-2.99-.57-1.13-.88-2.15-.93-3.05-.04-1.27.44-2.1,1.43-2.48.35-.15.72-.24,1.1-.25,1.36-.04,2.57.83,3.62,2.61,1.15-1.55,2.34-2.35,3.58-2.38.43-.01.87.08,1.33.27.8.37,1.21,1.01,1.24,1.94-.12,1.56-.93,3.24-2.43,5.03-1.29,1.54-2.59,2.44-3.9,2.7Z"/>
    <path class="st0" d="M251.82,101.63c-.5-.48-1.1-.71-1.79-.68h-.4c-1.73.08-3.46.07-5.21-.02-2.14-.06-3.97-.09-5.51-.12.17-.74.3-1.5.36-2.29.16-2.09.14-4.49-.07-7.21-.21-2.71-.26-4.8-.17-6.24.09-1.25.14-2.59.14-4.04s-.02-3.06-.07-4.83c-.05-1.77-.07-3.12-.07-4.04,0-.16.07-.55.21-1.18.14-.62.18-1.03.14-1.24-.09-1.13-.61-1.88-1.55-2.26-.94-.38-1.94-.39-2.99-.03-1.06.36-1.79.93-2.2,1.69-.55.96-.86,2.09-.93,3.38-.07,1.29.01,2.48.24,3.59.23,1.11.47,2.38.72,3.83.25,1.45.35,2.67.31,3.68-.05.97-.08,2.87-.1,5.7-.02,2.84-.15,5.19-.38,7.06-.23,1.87-.64,3.71-1.24,5.52-.01.03-.01.05-.02.08-.3.46-.45.94-.42,1.44v.12c.04.71.31,1.31.82,1.81.56.49,1.13.72,1.72.7l1.24-.07c1.52-.06,3.04-.05,4.57.01h.58c2.47.08,4.93.13,7.39.17.87.03,1.74.03,2.59,0l.55-.02c.66-.02,1.24-.3,1.73-.83.46-.56.68-1.15.65-1.78-.05-.78-.33-1.41-.83-1.89Z"/>
    <path class="st0" d="M261.37,105.24h-.11c-.59.06-1.17-.16-1.73-.64-.51-.51-.8-1.12-.9-1.84l-.08-.94c-.15-1.7-.31-5.48-.49-11.33-.02-1.91-.11-3.81-.27-5.69l-.04-.43c-.07-.76.12-1.42.55-1.98.43-.56,1.03-.89,1.78-.97.61-.05,1.19.16,1.75.65.54.52.84,1.14.9,1.87l.05.6c.08.93.13,1.88.16,2.83.11,2.68.21,5.37.28,8.07l.03.63c.03,1.67.11,3.33.25,4.98l.14,1.35c.06.64-.13,1.28-.57,1.9-.46.57-1.02.89-1.7.95Z"/>
    <path class="st0" d="M260.75,76.38l-.35-.1c-.75-.31-1.37-.97-1.87-1.97-.5-1-.85-2.08-1.03-3.25-.19-1.17-.18-2.16.03-2.98.33-1.14.98-1.74,1.97-1.8.36-.04.71,0,1.05.09,1.22.35,2.05,1.46,2.49,3.34,1.46-1.06,2.75-1.43,3.86-1.11.39.11.76.32,1.11.62.61.55.79,1.24.56,2.07-.55,1.36-1.74,2.62-3.58,3.79-1.58,1-2.99,1.44-4.23,1.3Z"/>
    <path class="st0" d="M303.15,106.2c-.68,0-1.36-.09-2.05-.28-1.16-.32-2.19-.87-3.1-1.67-.37-.32-.7-.68-1-1.09l-.17-.25c-.26-.32-.47-.66-.64-1.03-.53-1.08-.89-2.22-1.05-3.43-.2-1.41-.3-2.82-.3-4.21,0-2.03.21-4.44.64-7.23l.11-.87c-.44,0-.88-.02-1.33-.06-.57,0-1.1-.14-1.58-.42l-.64-.5c-.59-.61-.89-1.39-.91-2.32,0-.76.3-1.47.91-2.12.26-.26.57-.48.94-.66s.73-.26,1.08-.26c1.18.06,1.97.08,2.38.08.17-1.47.25-2.95.25-4.44v-.59c0-.84.3-1.55.91-2.15.61-.59,1.35-.9,2.21-.92.42,0,.83.09,1.22.26.39.18.71.4.97.66.61.67.91,1.41.91,2.23v.75c0,.71-.02,1.4-.05,2.09l-.17,1.84h.55c1.33,0,2.64.11,3.95.33.79.22,1.41.71,1.85,1.45.28.48.41,1,.41,1.53,0,.78-.21,1.43-.64,1.95-.26.33-.55.6-.88.81-.42.28-.99.42-1.69.42-.28,0-.59-.05-.94-.14-.68-.06-1.35-.08-2.02-.08l-1.44.03-.36,2.54c-.3,1.97-.44,3.94-.44,5.91,0,.91.05,1.81.14,2.71.09.58.23,1.14.41,1.7.15.3.34.58.58.84.22.13.44.21.66.25h.88c.66-.15,1.31-.34,1.94-.59.76-.33,1.48-.73,2.18-1.17.48-.28.99-.42,1.52-.42,1.22,0,2.13.51,2.74,1.53.28.48.41,1,.41,1.56,0,.3-.04.59-.11.87-.24.82-.71,1.45-1.41,1.9-2.51,1.51-4.85,2.36-7.02,2.57l-.86.06Z"/>
  </g>
 
</svg>