<svg xmlns="http://www.w3.org/2000/svg" viewBox="0 0 382 111"><path d="M115.04 92.33h-.16q-1.305 0-2.46-.93c-.15-.15-.3-.31-.43-.48l-.1-.08c-.37-.54-.56-1.1-.56-1.66 0-1.75-.02-3.49-.07-5.21-.09-4.57-.5-9.46-1.24-14.69v-.17c0-.71.36-1.41 1.08-2.09.74-.6 1.65-.91 2.72-.93q1.35 0 2.52.93c.35.28.6.62.75 1.01.2.3.29.64.29 1.01q1.575-1.35 3.51-2.25c1.33-.58 2.48-.95 3.44-1.1.66-.13 1.34-.2 2.06-.2s1.44.1 2.1.31c.92.26 1.73.68 2.43 1.24 1.18 1.05 1.81 2.37 1.9 3.95v.31c0 .7-.09 1.38-.26 2.06-.09.41-.28.78-.59 1.1-.83.81-1.8 1.21-2.92 1.21-.9 0-1.66-.22-2.29-.65-.39-.26-.71-.56-.95-.9-.33-.47-.49-1.05-.49-1.75l.03-.37c-.57.17-1.25.5-2.03.99-.41.3-.81.63-1.18.99-.35.47-.67.96-.95 1.47-.98 2.22-1.65 4.51-2 6.88a50 50 0 0 0-.46 6.85c0 .85-.37 1.58-1.1 2.2q-1.095.93-2.61.96ZM82.99 70.88c.05-.32-.12-.84-.52-1.56s-.47-1.29-.2-1.72c.69-.59 1.07-1.75 1.12-3.49s.53-2.9 1.44-3.49c1.12-.8 2.24-1.23 3.36-1.28s2.08.37 2.88 1.28c.43.43.67 1.18.72 2.24.05 1.07.19 1.66.4 1.76 1.92.21 3.69.52 5.29.92s3.24.98 4.93 1.72c1.68.75 2.96 1.82 3.85 3.21.88 1.39 1.21 2.99 1 4.81-.21 2.03-.79 3.73-1.72 5.09a9.1 9.1 0 0 1-3.69 3.12q-2.28 1.08-4.41 1.68c-2.13.6-3.1.81-5.05 1.24q-2.925.645-4.53 1.2c-.64 3.9-.9 6.85-.76 8.85.13 2 .76 4.93 1.88 8.77 0 .16.11.39.32.68s.47.64.76 1.04.52.73.68 1c.64 1.33.11 2.16-1.6 2.48s-3.15.21-4.33-.32c-.27-.11-.53-.25-.8-.44s-.49-.36-.68-.52-.36-.4-.52-.72-.29-.58-.4-.76c-.11-.19-.23-.49-.36-.92s-.23-.75-.28-.96-.12-.56-.2-1.04-.12-.81-.12-1-.04-.55-.12-1.08q-.12-.795-.12-.96-.405-3.045-.48-6.21c-.05-2.11.01-4.25.2-6.41s.37-4.13.56-5.89.44-3.87.76-6.33.56-4.46.72-6.01Zm8.5.4c-1.07 1.07-1.84 2.84-2.32 5.33-.48 2.48-.29 3.97.56 4.45 1.65.75 3.65.51 5.97-.72s3.65-3.1 3.97-5.61c.32-1.87-.59-3.02-2.72-3.44q-1.44-.645-3-.72c-1.04-.05-1.86.19-2.44.72Zm58.93 8.02c.5-3.48 1.95-6.33 4.35-8.54.07-.07.37-.36.88-.84q.78-.735.99-.93c.21-.195.46-.41.97-.84q.75-.645 1.08-.87c.22-.15.57-.39 1.05-.71.49-.32.87-.53 1.16-.63s.67-.23 1.14-.38c.47-.16.88-.24 1.23-.25.35 0 .74.02 1.18.08.25.04.31.07.73.16.62.14 1.05.2 1.16.22.45.08 2.62.68 3.21 2.4.54 1.58-.4 3.67-1.6 4.01-.91.26-1.33-.66-3.21-.8-1.14-.08-2.04.18-2.44.3-.31.09-1.35.41-2.54 1.37-2.65 2.14-4.03 4.37-4.12 6.67-.1 2.05.32 3.74 1.27 5.07.26.43.62.8 1.07 1.1s.83.51 1.17.63c.33.12.83.27 1.49.46s1.12.33 1.38.43c.85.31 1.68.22 2.51-.28.83-.49 1.65-1.08 2.48-1.76.82-.68 1.55-1.04 2.17-1.09.55-.05.92.09 1.13.41s.26.74.17 1.26c-.1.51-.22.98-.38 1.41-.15.42-.32.78-.5 1.08-2.08 3.34-6.08 4.23-11.99 2.69-2.54-.67-4.46-2.12-5.77-4.36-1.31-2.23-1.78-4.73-1.41-7.47Zm23.78-5.56c-.09-3.37.97-6.1 3.17-8.17s4.95-2.88 8.23-2.43c2.7.36 5.05 1.67 7.05 3.91q3 3.375 2.94 7.56c-.4 1.26-2.26 2.87-5.57 4.83s-5.19 3.16-5.64 3.61q-.345.075-.84.54c-.34.32-.42.61-.24.88.54.99 1.21 1.69 2.03 2.09.81.41 1.72.52 2.73.34s1.93-.43 2.77-.74q1.245-.465 2.94-1.35c1.17.9 1.54 2.1 1.11 3.61s-1.34 2.37-2.73 2.6c-.09 0-.59.08-1.48.24-.9.16-1.46.25-1.69.27s-.72.07-1.48.14-1.35.07-1.75 0-.9-.16-1.48-.27-1.15-.28-1.69-.51c-5.4-2.43-8.19-8.14-8.37-17.14Zm7.36 3.45c4.05-.18 6.48-1.6 7.29-4.25.72-1.57.13-2.78-1.75-3.61-1.89-.83-3.58-.87-5.06-.1-.9.5-1.5 1.38-1.79 2.67s-.28 2.48.03 3.58.74 1.68 1.28 1.72Zm82.22-10.12c.37.16 1.11.46 2.23.88 1.12.43 1.94.76 2.47 1.01.53.24 1.14.64 1.83 1.19s1.2 1.17 1.52 1.86q.36.675-.03 1.71c-.27.69-.58 1.16-.95 1.4-.85.53-2.01.39-3.47-.43-1.46-.81-2.82-1.56-4.05-2.26-1.24-.69-2.73-.61-4.48.24-.77.53-.79 1.32-.06 2.38s1.5 1.73 2.32 2.01c4.23 1.5 7.44 3.27 9.63 5.3.81.98 1.17 2.11 1.07 3.41s-.52 2.54-1.25 3.72c-1.06 1.79-2.78 3.2-5.18 4.24s-4.86 1.29-7.38.76-4.35-1.97-5.49-4.33c-.41-.81-.27-1.62.43-2.41.69-.79 1.5-1.23 2.44-1.31.53-.04 1.05.37 1.55 1.22.51.85.92 1.36 1.25 1.52 1.42.81 3.09.84 5 .09s2.87-1.96 2.87-3.63c0-.41-.32-.88-.95-1.43s-1.25-.96-1.86-1.25c-.45-.2-1.44-.62-2.99-1.25-1.54-.63-2.65-1.11-3.32-1.43s-1.46-.87-2.38-1.65c-.91-.77-1.6-1.65-2.04-2.62-.73-1.5-.43-3.1.91-4.79s3.08-2.95 5.21-3.78 3.85-.97 5.15-.4ZM140.56 91.13h-.15c-.79 0-1.53-.28-2.23-.84-.61-.58-.94-1.25-.98-2.02v-1c0-1.8.22-5.78.65-11.94q.3-3.015.3-6v-.46c0-.8.32-1.48.96-2.03s1.47-.84 2.48-.85q1.215 0 2.25.84c.65.6.98 1.28.98 2.04v.64c0 .99-.04 1.98-.12 2.99-.16 2.82-.35 5.66-.56 8.5l-.03.66c-.16 1.75-.24 3.5-.24 5.26l.03 1.43c0 .68-.33 1.33-.98 1.94q-1.005.84-2.37.84Zm2.68-28.4h-.39c-.86-.07-1.71-.53-2.55-1.39s-1.54-1.86-2.11-2.99-.88-2.15-.93-3.05c-.04-1.27.44-2.1 1.43-2.48.35-.15.72-.24 1.1-.25 1.36-.04 2.57.83 3.62 2.61 1.15-1.55 2.34-2.35 3.58-2.38.43-.01.87.08 1.33.27.8.37 1.21 1.01 1.24 1.94-.12 1.56-.93 3.24-2.43 5.03q-1.935 2.31-3.9 2.7Zm92.25 27.36c-.5-.48-1.1-.71-1.79-.68h-.4c-1.73.08-3.46.07-5.21-.02-2.14-.06-3.97-.09-5.51-.12.17-.74.3-1.5.36-2.29.16-2.09.14-4.49-.07-7.21-.21-2.71-.26-4.8-.17-6.24.09-1.25.14-2.59.14-4.04s-.02-3.06-.07-4.83-.07-3.12-.07-4.04c0-.16.07-.55.21-1.18.14-.62.18-1.03.14-1.24-.09-1.13-.61-1.88-1.55-2.26s-1.94-.39-2.99-.03c-1.06.36-1.79.93-2.2 1.69-.55.96-.86 2.09-.93 3.38s.01 2.48.24 3.59.47 2.38.72 3.83.35 2.67.31 3.68c-.05.97-.08 2.87-.1 5.7-.02 2.84-.15 5.19-.38 7.06s-.64 3.71-1.24 5.52c-.01.03-.01.05-.02.08-.3.46-.45.94-.42 1.44V92c.04.71.31 1.31.82 1.81.56.49 1.13.72 1.72.7l1.24-.07c1.52-.06 3.04-.05 4.57.01h.58c2.47.08 4.93.13 7.39.17.87.03 1.74.03 2.59 0l.55-.02c.66-.02 1.24-.3 1.73-.83.46-.56.68-1.15.65-1.78-.05-.78-.33-1.41-.83-1.89Zm9.56 3.6h-.11c-.59.06-1.17-.16-1.73-.64-.51-.51-.8-1.12-.9-1.84l-.08-.94c-.15-1.7-.31-5.48-.49-11.33-.02-1.91-.11-3.81-.27-5.69l-.04-.43c-.07-.76.12-1.42.55-1.98s1.03-.89 1.78-.97c.61-.05 1.19.16 1.75.65.54.52.84 1.14.9 1.87l.05.6c.08.93.13 1.88.16 2.83.11 2.68.21 5.37.28 8.07l.03.63c.03 1.67.11 3.33.25 4.98l.14 1.35c.06.64-.13 1.28-.57 1.9-.46.57-1.02.89-1.7.95Zm-.63-28.85-.35-.1c-.75-.31-1.37-.97-1.87-1.97s-.85-2.08-1.03-3.25c-.19-1.17-.18-2.16.03-2.98.33-1.14.98-1.74 1.97-1.8.36-.04.71 0 1.05.09 1.22.35 2.05 1.46 2.49 3.34 1.46-1.06 2.75-1.43 3.86-1.11.39.11.76.32 1.11.62.61.55.79 1.24.56 2.07-.55 1.36-1.74 2.62-3.58 3.79-1.58 1-2.99 1.44-4.23 1.3Zm42.4 29.82c-.68 0-1.36-.09-2.05-.28a7.74 7.74 0 0 1-3.1-1.67c-.37-.32-.7-.68-1-1.09l-.17-.25c-.26-.32-.47-.66-.64-1.03a11 11 0 0 1-1.05-3.43c-.2-1.41-.3-2.82-.3-4.21 0-2.03.21-4.44.64-7.23l.11-.87c-.44 0-.88-.02-1.33-.06-.57 0-1.1-.14-1.58-.42l-.64-.5c-.59-.61-.89-1.39-.91-2.32 0-.76.3-1.47.91-2.12.26-.26.57-.48.94-.66s.73-.26 1.08-.26c1.18.06 1.97.08 2.38.08.17-1.47.25-2.95.25-4.44v-.59c0-.84.3-1.55.91-2.15.61-.59 1.35-.9 2.21-.92.42 0 .83.09 1.22.26.39.18.71.4.97.66.61.67.91 1.41.91 2.23v.75c0 .71-.02 1.4-.05 2.09l-.17 1.84h.55c1.33 0 2.64.11 3.95.33.79.22 1.41.71 1.85 1.45.28.48.41 1 .41 1.53 0 .78-.21 1.43-.64 1.95-.26.33-.55.6-.88.81-.42.28-.99.42-1.69.42-.28 0-.59-.05-.94-.14-.68-.06-1.35-.08-2.02-.08l-1.44.03-.36 2.54c-.3 1.97-.44 3.94-.44 5.91 0 .91.05 1.81.14 2.71.09.58.23 1.14.41 1.7.15.3.34.58.58.84.22.13.44.21.66.25h.88c.66-.15 1.31-.34 1.94-.59.76-.33 1.48-.73 2.18-1.17.48-.28.99-.42 1.52-.42 1.22 0 2.13.51 2.74 1.53.28.48.41 1 .41 1.56 0 .3-.04.59-.11.87-.24.82-.71 1.45-1.41 1.9-2.51 1.51-4.85 2.36-7.02 2.57l-.86.06ZM4.22 5.37q2.835-2.415 6.09-3.84Q13.565.12 17.24-.18c2.45-.19 4.75.29 6.92 1.46 1.33.67 1.89 1.5 1.67 2.5a30.8 30.8 0 0 0-2.38 6.8c-.53 2.36-.81 4.89-.83 7.59-.03 2.7.01 5.01.12 6.92.11 1.92.35 4.51.71 7.76s.6 5.63.71 7.13c.28 2.84.19 5.24-.25 7.22-.45 1.97-1.61 3.49-3.5 4.55-3.28 1.89-6.92 2.1-10.93.63-4-1.47-6.62-4.02-7.84-7.63-.45-8.45 1.38-14.15 5.46-17.1 4.09-2.95 4.13.2.12 9.43-.06 3.28.54 5.69 1.79 7.22s2.39 2.61 3.42 3.25 2.21.88 3.55.71c.39-.11.92-.86 1.58-2.25.5-1.67.67-4.07.5-7.22s-.38-5.53-.63-7.17-.65-4.05-1.21-7.22c0-.11.03-.33.08-.67.28-1.22.22-1.81-.17-1.75l-.5.25c-3.62 2.17-6.79 2.7-9.51 1.58-1.67-.67-3.25-2.36-4.75-5.09C.33 16.38.04 13.99.51 11.54s1.71-4.51 3.71-6.17m5.34 2.25c-2 1.72-2.84 3.73-2.5 6.01.56 3.84 1.61 5.76 3.17 5.76.94.06 1.74-.22 2.38-.83q.96-.915 2.04-3.3c.72-1.58 1.17-2.54 1.33-2.88.5-.83.79-1.9.88-3.21.08-1.31-.12-2.35-.63-3.13-.33-.67-.93-.93-1.79-.79s-1.71.42-2.54.83c-.83.42-1.61.93-2.34 1.54M35.43 29.9c-2.78-1.67-4.76-4.06-5.92-7.17q-1.755-4.665-.33-9.51c.5-1.84 1.47-3.77 2.92-5.8s2.25-3.24 2.42-3.63C35.63 1.68 37.31.73 39.57.95c2.25.22 4.24 1.28 5.96 3.17 1.83 2.11 3.2 4.84 4.09 8.18 1.5 5.62-.42 11.24-5.76 16.85-.89.95-2.24 1.47-4.05 1.58s-3.27-.17-4.38-.83m2.67-8.26c1.89.45 3.28.03 4.17-1.25s1.13-2.92.71-4.92-1.35-3.81-2.79-5.42c-.61-.67-1.67-.14-3.17 1.59-2.06 2.28-2.95 4.48-2.67 6.59q.33 2.67 3.75 3.42Zm14.34 1.08c0-.89-.08-2.38-.25-4.46-.17-2.09-.22-3.87-.17-5.34s.31-2.79.75-3.96c.5-1.28 1.63-1.88 3.38-1.79s2.82.82 3.21 2.21c.22.78.15 1.89-.21 3.34s-.54 2.45-.54 3c.11.11.25.33.42.67q.255.33.33.33c.11-.17.38-.61.79-1.33.42-.72.69-1.21.83-1.46s.42-.68.83-1.29c.42-.61.74-1.03.96-1.25s.54-.57.96-1.04.79-.79 1.13-.96c.33-.17.74-.38 1.21-.63s.93-.39 1.38-.42c.44-.03.93-.03 1.46 0s1.1.12 1.71.29c.89 1.39 1.63 2.85 2.21 4.38q.87 2.295 1.29 5.46c.42 3.165.47 3.66.58 4.63s.22 2.87.33 5.67c.11 2.81.17 4.44.17 4.88.56 2.45.19 3.87-1.08 4.25q-5.34 1.425-5.67-.75c-.33-2.11-.58-5.45-.75-10.01s-.5-8.04-1-10.43c-1.56 1.72-3.09 4.58-4.59 8.55-1.5 3.98-2.67 6.66-3.5 8.05-.67 1.11-1.68 1.7-3.04 1.75-1.36.06-2.29-.53-2.79-1.75-.33-.95-.53-1.99-.58-3.13-.06-1.14-.03-2.5.08-4.09s.17-2.71.17-3.38Zm36.54 7.18c-2.78-1.67-4.76-4.06-5.92-7.17q-1.755-4.665-.33-9.51c.5-1.84 1.47-3.77 2.92-5.8s2.25-3.24 2.42-3.63C89.18 1.68 90.86.73 93.12.95c2.25.22 4.24 1.28 5.96 3.17 1.83 2.11 3.2 4.84 4.09 8.18 1.5 5.62-.42 11.24-5.76 16.85-.89.95-2.24 1.47-4.05 1.58s-3.27-.17-4.38-.83m2.67-8.26c1.89.45 3.28.03 4.17-1.25s1.13-2.92.71-4.92-1.35-3.81-2.79-5.42c-.61-.67-1.67-.14-3.17 1.59-2.06 2.28-2.95 4.48-2.67 6.59q.33 2.67 3.75 3.42Zm30.29-18.36c.83.11 1.42.31 1.75.58.44 1.33 1.61 7.19 3.5 17.56s2.61 15.98 2.17 16.81c.22-.11-.15.03-1.13.42-.97.39-1.97.42-3 .08-1.03-.33-1.57-.64-1.63-.92-1.06-6.56-2.39-12.12-4-16.69-.61 1.5-1.18 2.81-1.71 3.92s-1.16 2.24-1.88 3.38-1.24 1.93-1.54 2.38c-.31.45-1.03 1.43-2.17 2.96s-1.91 2.57-2.29 3.13c-.72.67-1.56.95-2.5.83-.95-.11-1.78-.5-2.5-1.17-1.17-.94-1.11-2.59.17-4.92q1.59-2.835 4.17-7.47c1.72-3.09 3.06-5.48 4-7.17.95-1.7 2.06-3.82 3.34-6.38s2.45-5.06 3.5-7.51l1.75.17Zm39.46 25.11q-.09 2.34-.33 4.05c-.17 1.14-.5 2.31-1 3.5-.5 1.2-1.36 2.11-2.59 2.75-1.22.64-2.84.93-4.84.88q-1.005-2.25.12-7.47t-.63-6.63q-.255-.495-1.83-.75c-1.06-.17-2.16-.12-3.29.13-1.14.25-1.88.77-2.21 1.54-.5.95-.91 2.28-1.21 4-.31 1.72-.6 3.3-.88 4.71-.28 1.42-.71 2.79-1.29 4.13-.58 1.33-1.53 2.31-2.84 2.92s-2.96.75-4.96.42c0-1.33.44-3.92 1.33-7.76s1.06-6.78.5-8.84c0-.11-.28-.38-.83-.79-.56-.42-.81-.82-.75-1.21.11-.44.56-1 1.33-1.67.78-.67 1.2-1.14 1.25-1.42.11-1.39-.01-3.31-.38-5.76-.36-2.45-.56-4.37-.58-5.76-.03-1.39.35-3.22 1.13-5.51.28-.56.97-.92 2.08-1.08 1.11-.17 2.24-.05 3.38.33 1.14.39 1.79 1.06 1.96 2 .28 1.89.38 4.38.29 7.47-.08 3.09.26 5.46 1.04 7.13.44.72 1.6.96 3.46.71q2.79-.375 3.63-1.29c.61-.83.93-1.78.96-2.84s-.07-2.02-.29-2.88-.56-1.96-1-3.3-.75-2.34-.92-3c-.17-.89.47-1.81 1.92-2.75 1.28-.5 2.63-.69 4.05-.58s2.38.53 2.88 1.25c.89 1.22 1.4 2.57 1.54 4.05.14 1.47.11 3.28-.08 5.42-.2 2.14-.26 3.66-.21 4.55q.165.585.54 1.71c.25.75.4 1.27.46 1.54.05.28-.03.72-.25 1.33s-.33 1.06-.33 1.33q-.255 1.08-.33 3.42Zm29.2-5.5c0 .89.08 2.38.25 4.46.17 2.09.22 3.87.17 5.34q-.09 2.205-.75 3.96c-.5 1.28-1.63 1.88-3.38 1.79-1.75-.08-2.82-.82-3.21-2.21-.22-.78-.15-1.89.21-3.34s.54-2.45.54-3c-.11-.11-.25-.33-.42-.67q-.255-.33-.33-.33c-.11.17-.38.61-.79 1.33-.42.72-.7 1.21-.83 1.46-.14.25-.42.68-.83 1.29-.42.61-.74 1.03-.96 1.25s-.54.57-.96 1.04-.79.79-1.13.96c-.33.17-.74.38-1.21.63s-.93.39-1.38.42-.93.03-1.46 0a8.7 8.7 0 0 1-1.71-.29c-.89-1.39-1.63-2.85-2.21-4.38s-1.02-3.35-1.29-5.46c-.28-2.11-.47-3.66-.58-4.63q-.165-1.455-.33-5.67c-.11-2.81-.17-4.43-.17-4.88-.56-2.45-.2-3.86 1.08-4.25q5.34-1.41 5.67.75c.33 2.11.58 5.45.75 10.01s.5 8.04 1 10.43q2.34-2.58 4.59-8.55c1.5-3.98 2.67-6.66 3.5-8.05.67-1.11 1.68-1.7 3.04-1.75s2.29.53 2.79 1.75c.33.95.53 1.99.58 3.13s.03 2.5-.08 4.09c-.11 1.58-.17 2.71-.17 3.38Zm5.92-6.76c-.33-3.23.03-5.91 1.08-8.05 1.06-2.14 2.92-2.77 5.59-1.88.95.33 1.56.96 1.83 1.88.28.92.29 1.92.04 3s-.39 2.21-.42 3.38.18 2.14.63 2.92c.78-.78 1.56-1.9 2.34-3.38.78-1.47 1.43-2.79 1.96-3.96s1.22-2.34 2.09-3.5q1.29-1.755 2.67-2.04c.92-.19 2.18-.04 3.8.46.78.83 1.28 1.36 1.5 1.58.22.89.43 2.43.63 4.63.19 2.2.49 3.85.88 4.96.39-.44.92-1.13 1.58-2.04.67-.92 1.22-1.68 1.67-2.29.44-.61 1.01-1.31 1.71-2.09s1.36-1.38 2-1.79c.64-.42 1.33-.81 2.08-1.17s1.53-.51 2.34-.46c.81.06 1.65.28 2.54.67.55.39.93.92 1.13 1.58.19.67.29 1.53.29 2.59s.03 1.75.08 2.09c1.39 11.85.75 21.66-1.92 29.45-.33 1.39-1.27 2.22-2.79 2.5-1.53.28-2.93-.03-4.21-.92-.11 0-.22-.15-.33-.46s-.17-.68-.17-1.13.05-.86.17-1.25c2.28-6.95 2.78-15.24 1.5-24.86 0-.78-.39-.81-1.17-.08-.33.28-.56.58-.67.92-2.95 4.62-5.28 10.26-7.01 16.94-.61 1.45-1.79 2.46-3.55 3.04s-3.13.13-4.13-1.38c.22-2.61.38-5.64.46-9.09s-.18-6.2-.79-8.26q-3.255 2.58-4.71 6.84c-.97 2.84-1.96 6.34-2.96 10.51-.78 1.22-1.97 1.84-3.59 1.84s-2.64-.61-3.09-1.84c-.78-2.22-1.11-5.44-1-9.64s.08-7.6-.08-10.22m44.63 1.17c-.11-4.17 1.2-7.54 3.92-10.09 2.72-2.56 6.12-3.56 10.18-3 3.34.45 6.24 2.06 8.72 4.84 2.47 2.78 3.68 5.9 3.63 9.34-.5 1.56-2.79 3.55-6.88 5.96-4.09 2.42-6.41 3.91-6.97 4.46-.28.06-.63.28-1.04.67-.42.39-.51.75-.29 1.08.67 1.22 1.5 2.09 2.5 2.59s2.13.64 3.38.42 2.39-.53 3.42-.92 2.24-.95 3.63-1.67c1.45 1.11 1.9 2.6 1.38 4.46-.53 1.86-1.66 2.93-3.38 3.21-.11 0-.72.1-1.83.29-1.11.2-1.81.31-2.09.33-.28.03-.89.08-1.83.17-.95.08-1.67.08-2.17 0s-1.11-.19-1.84-.33c-.72-.14-1.42-.35-2.08-.63-6.67-3-10.12-10.07-10.35-21.19Zm9.1 4.25c5.01-.22 8.01-1.97 9.01-5.26.89-1.95.17-3.43-2.17-4.46s-4.42-1.07-6.26-.13c-1.11.61-1.85 1.71-2.21 3.3s-.35 3.06.04 4.42.92 2.07 1.58 2.13Zm36.87-18.27c.83.11 1.42.31 1.75.58.44 1.33 1.61 7.19 3.5 17.56s2.61 15.98 2.17 16.81c.22-.11-.15.03-1.13.42-.97.39-1.97.42-3 .08-1.03-.33-1.57-.64-1.63-.92-1.06-6.56-2.39-12.12-4-16.69-.61 1.5-1.18 2.81-1.71 3.92s-1.16 2.24-1.88 3.38-1.24 1.93-1.54 2.38c-.31.45-1.03 1.43-2.17 2.96s-1.91 2.57-2.29 3.13c-.72.67-1.56.95-2.5.83-.95-.11-1.78-.5-2.5-1.17-1.17-.94-1.11-2.59.17-4.92q1.59-2.835 4.17-7.47c1.72-3.09 3.06-5.48 4-7.17.95-1.7 2.06-3.82 3.34-6.38s2.45-5.06 3.5-7.51l1.75.17Zm16.35 37.38c-.56-.11-1.11-.81-1.67-2.09q-.255-2.085-.42-8.13c-.11-4.03-.42-7.19-.92-9.47-.06-.11-.22-.44-.5-1s-.46-1.04-.54-1.46-.07-.82.04-1.21c.11-.22.33-.5.67-.83.33-.33.56-.61.67-.83.06-.95.03-2.95-.08-6.01s0-5.06.33-6.01c.28-1.17.97-2.15 2.08-2.96s2.11-.71 3 .29c.78.83 1.2 1.85 1.25 3.04.05 1.2-.1 2.35-.46 3.46s-.57 2.32-.62 3.63c-.06 1.31.19 2.49.75 3.55 2.5.11 4.82.49 6.97 1.13 2.14.64 4.12 1.7 5.92 3.17 1.81 1.47 3.07 3.27 3.8 5.38.67 1.89.5 3.88-.5 5.96-1 2.09-2.39 3.77-4.17 5.05-2.78 2-5.44 3.5-7.97 4.51-2.53 1-5.08 1.28-7.63.83m4.59-6.34c2.5-.17 4.81-.96 6.92-2.38s3.14-3.18 3.09-5.3c-.06-1.33-.72-2.59-2-3.75-1.28-1.17-2.81-2-4.59-2.5s-3.48-.64-5.09-.42c0 6.45.56 11.24 1.67 14.35m46.05-5.93q-.09 2.34-.33 4.05c-.17 1.14-.5 2.31-1 3.5-.5 1.2-1.36 2.11-2.59 2.75-1.22.64-2.84.93-4.84.88q-1.005-2.25.12-7.47t-.63-6.63q-.255-.495-1.83-.75c-1.06-.17-2.16-.12-3.29.13-1.14.25-1.88.77-2.21 1.54-.5.95-.91 2.28-1.21 4-.31 1.72-.6 3.3-.88 4.71-.28 1.42-.71 2.79-1.29 4.13-.58 1.33-1.53 2.31-2.84 2.92s-2.96.75-4.96.42c0-1.33.44-3.92 1.33-7.76s1.06-6.78.5-8.84c0-.11-.28-.38-.83-.79-.56-.42-.81-.82-.75-1.21.11-.44.56-1 1.33-1.67.78-.67 1.2-1.14 1.25-1.42.11-1.39-.01-3.31-.38-5.76-.36-2.45-.56-4.37-.58-5.76-.03-1.39.35-3.22 1.13-5.51.28-.56.97-.92 2.08-1.08 1.11-.17 2.24-.05 3.38.33 1.14.39 1.79 1.06 1.96 2 .28 1.89.38 4.38.29 7.47-.08 3.09.26 5.46 1.04 7.13.44.72 1.6.96 3.46.71q2.79-.375 3.63-1.29c.61-.83.93-1.78.96-2.84s-.07-2.02-.29-2.88-.56-1.96-1-3.3-.75-2.34-.92-3c-.17-.89.47-1.81 1.92-2.75 1.28-.5 2.63-.69 4.05-.58s2.38.53 2.88 1.25c.89 1.22 1.4 2.57 1.54 4.05.14 1.47.11 3.28-.08 5.42-.2 2.14-.26 3.66-.21 4.55q.165.585.54 1.71c.25.75.4 1.27.46 1.54.05.28-.03.72-.25 1.33s-.33 1.06-.33 1.33q-.255 1.08-.33 3.42Zm13.1 1.51c-2.78-1.67-4.76-4.06-5.92-7.17q-1.755-4.665-.33-9.51c.5-1.84 1.47-3.77 2.92-5.8s2.25-3.24 2.42-3.63c1.11-2.11 2.79-3.06 5.05-2.84 2.25.22 4.24 1.28 5.96 3.17 1.83 2.11 3.2 4.84 4.09 8.18 1.5 5.62-.42 11.24-5.76 16.85-.89.95-2.24 1.47-4.05 1.58s-3.27-.17-4.38-.83m2.67-8.26c1.89.45 3.28.03 4.17-1.25s1.13-2.92.71-4.92-1.35-3.81-2.79-5.42c-.61-.67-1.67-.14-3.17 1.59-2.06 2.28-2.95 4.48-2.67 6.59q.33 2.67 3.75 3.42Z" style="fill:#b50f3e"/></svg>