<svg xmlns="http://www.w3.org/2000/svg" viewBox="0 0 130.4 36.8"><path d="m38.3 30.3-.9-.3v-.2c-.3-.2-.4-.4-.4-.6v-1.9c0-1.6-.2-3.4-.4-5.2 0-.3.1-.6.4-.8.5-.4 1.3-.4 1.9 0l.3.4.1.4c.7-.6 1.5-1 2.5-1.2h1.4c.3 0 .6.2.9.4.4.4.6.9.7 1.4l-.1.9-.2.4c-.3.3-.6.4-1 .4s-.6 0-.8-.2l-.4-.3-.2-.6-.7.2-.4.4-.3.5c-.4.8-.6 1.6-.7 2.5l-.2 2.4c0 .8-.1.6-.4.8l-.9.4Zm-11.4-7.6-.2-.6c-.1-.2-.2-.5 0-.6.2-.2.4-.6.4-1.2s.2-1 .5-1.2a3 3 0 0 1 1.2-.5c.4 0 .7.1 1 .5l.2.8.1.6c1.2.1 2.5.5 3.6.9 1.2.4 1.9 1.6 1.7 2.8 0 .7-.3 1.3-.6 1.8s-.8.9-1.3 1.1c-1.1.5-2.2.9-3.3 1l-1.6.4a25 25 0 0 0-.3 3.2c.1 1.2.4 2.3.8 3.4l.3.4.2.4c.2.5 0 .8-.6.9s-1.1 0-1.5-.1h-.3l-.2-.3-.2-.2v-.3l-.3-.3v-.4l-.2-.4V33.6l-.2-2.2v-2.3l.2-2.1.3-2.2.2-2.1Zm3.1.1c-.4.4-.6 1-.8 1.9s-.1 1.4.2 1.6c.6.2 1.3.2 2.1-.2s1.3-1.1 1.4-2c.1-.7-.2-1.1-1-1.2l-1.1-.2c-.4 0-.7 0-.9.2Zm20.9 2.9a5 5 0 0 1 1.6-3l.3-.3.4-.3.4-.3.4-.3.4-.2.4-.2.4-.1h1.1l.4.1c.1 0 .9.2 1.1.9.2.6-.1 1.3-.6 1.4-.3.1-.5-.2-1.1-.3l-.9.1c-.1 0-.5.1-.9.5-1 .7-1.4 1.6-1.5 2.4 0 .7.1 1.3.5 1.8l.4.4.4.2.5.2h.5c.3.2.6.2.9 0l.9-.6c.3-.2.5-.4.8-.4l.4.1v.5l-.1.5-.2.4c-.7 1.2-2.2 1.5-4.3 1-.9-.2-1.6-.8-2.1-1.6s-.6-1.7-.5-2.7h-.1Zm8.5-2a4 4 0 0 1 1.1-2.9c.8-.7 1.9-1.1 2.9-.9 1 .1 1.8.6 2.5 1.4.7.8 1.1 1.7 1 2.7-.1.5-.8 1-2 1.7-.8.4-1.6.9-2.3 1.5v.3c.2.4.4.6.7.7.3.1.6.2 1 .1l1-.2 1-.5c.4.3.5.7.4 1.3s-.5.9-1 .9h-.5l-.6.2H63l-.6-.3c-1.9-.9-2.9-2.9-3-6.1Zm2.6 1.2c1.4 0 2.3-.6 2.6-1.5.2-.6 0-1-.6-1.3-.7-.3-1.3-.3-1.8 0-.3.2-.5.5-.6 1v1.3c.1.4.2.6.5.6Zm29.3-3.6.8.3.9.4.6.4.5.7v.6l-.3.5c-.3.2-.7.1-1.2-.1l-1.5-.8c-.4-.2-1-.2-1.6 0-.3.2-.3.5 0 .9.2.3.5.6.8.7 1.5.5 2.6 1.2 3.4 1.9.3.4.4.7.4 1.2s-.2.9-.5 1.3c-.4.7-1.1 1.2-1.9 1.5-.9.4-1.7.5-2.6.3s-1.5-.7-2-1.5c-.1-.3-.1-.6.1-.9s.5-.4.9-.5c.2 0 .4.1.6.4l.4.5c.5.3 1.1.3 1.8 0s1-.7 1-1.3-.1-.3-.3-.5l-.7-.4-1.1-.4-1.2-.5-.9-.6a2 2 0 0 1-.7-.9c-.2-.5-.1-1.1.3-1.7.5-.6 1.1-1 1.9-1.4.7-.3 1.4-.4 1.9-.1Zm-43.9 8.6c-.3 0-.5-.1-.8-.3l-.4-.7v-.4l.2-4.2v-2.1l.1-.2c0-.3.1-.5.4-.7.2-.2.5-.3.9-.3.3 0 .6.1.8.3l.4.7v1.3l-.2 3v.2l-.1 1.9v.5c0 .2-.1.5-.3.7-.2.2-.5.3-.9.3Zm1-10.1h-.1c-.3 0-.6-.2-.9-.5l-.7-1.1a2 2 0 0 1-.3-1.1c0-.5.1-.7.5-.9h.4c.5 0 .9.3 1.3.9.4-.6.8-.8 1.3-.9s.3 0 .5.1c.3.1.4.4.4.7 0 .7-.4 1.3-.9 1.8-.3.5-.8.8-1.4 1Zm32.8 9.7c-.2-.2-.4-.2-.6-.2h-3.9l.1-.9V18.3c0-.4-.2-.7-.5-.8h-1.1c-.4.1-.6.3-.8.6-.2.4-.3.7-.3 1.2v1.3l.2 1.4.1 1.3v2c0 1.5-.2 3-.6 4.5l-.1.5c0 .5.4.9.9.9h6l.6-.3c.2-.2.2-.4.2-.6a1 1 0 0 0-.3-.7Zm3.4 1.3c-.2 0-.4 0-.6-.2l-.3-.6v-.3l-.2-4v-2l-.1-.1c0-.3 0-.5.2-.7.1-.2.4-.3.6-.4.2 0 .4 0 .6.2.2.2.3.4.3.7v1.2l.2 2.9v.2l.1 1.8v.5l-.1.7-.6.3Zm-.2-10.2h-.1l-.7-.7c-.3-.7-.5-1.5-.4-2.2.1-.4.4-.6.7-.6h.4c.4.1.7.5.9 1.2.5-.4 1-.5 1.4-.4l.4.2c.2.2.3.4.2.7-.2.5-.6.9-1.3 1.4-.4.3-1 .5-1.5.5Zm15.1 10.6-.7-.1c-.4-.1-.8-.3-1.1-.6l-.4-.4c-.3-.6-.5-1.1-.6-1.7v-1.5c-.1-.7 0-1.6.1-2.6V24h-.4l-.6-.1-.2-.2c-.2-.2-.3-.5-.3-.8s.1-.5.3-.7l.3-.2.4-.1h.9v-1.8c0-.3.1-.6.3-.7.2-.2.5-.3.8-.3l.4.1.4.2c.2.2.3.5.3.8v1.7h1.5l.7.6c.2.4.2.9 0 1.2l-.3.3-.6.1h-1.5v.9l-.3 2.1v1l.2.6.2.3h.2l.3.1.7-.2.8-.4.5-.1c.4 0 .8.2 1 .5l.1.6v.3l-.5.7c-.8.5-1.6.8-2.5.9h-.4ZM1.5 3.5c1.4-1.2 3.2-2 5.1-2.2 1 0 1.9.1 2.7.6.5.2.7.6.6 1C9 4.7 8.6 6.6 8.7 8.6v2.7l.3 3 .3 2.8c.1 1.1 0 2.1-.1 2.8-.2.8-.7 1.4-1.4 1.8a5 5 0 0 1-4.3.2 4.9 4.9 0 0 1-3.1-3c-.2-3.3.5-5.6 2.1-6.7s1.6 0 0 3.7c0 1.3.2 2.2.7 2.8.5.6.9 1 1.4 1.3.4.2.9.4 1.4.3.1 0 .4-.4.6-.9.2-1.9.2-3.8 0-5.7l-.5-2.8V10h-.2c-1.4 1-2.7 1.2-3.7.7-.6-.2-1.3-.9-1.9-2C0 7.8 0 6.9 0 5.9c.2-1 .7-1.8 1.5-2.4Zm2.1.9c-.8.7-1.1 1.5-1 2.3.2 1.5.6 2.2 1.2 2.2s.7 0 .9-.3l.8-1.3.5-1.1.4-1.2c0-.5 0-.9-.2-1.2-.1-.2-.4-.4-.7-.3-.4 0-.7.2-1 .3l-.9.6Zm8.9 7.6a5 5 0 0 1-2.1-2.6 5 5 0 0 1-.1-3.4 8 8 0 0 1 1-2.1l.9-1.3c.4-.7 1-1.1 1.8-1 .8 0 1.5.5 2.1 1.1.6.7 1.1 1.7 1.5 2.9.5 2-.1 4-2.1 6-.3.3-.8.5-1.4.6s-1.2 0-1.6-.3Zm1-2.9c.7.1 1.2 0 1.5-.5s.4-1 .2-1.7-.5-1.4-1-1.9c-.2-.2-.6 0-1.1.6-.7.8-1 1.6-1 2.3 0 .6.5 1 1.4 1.2Zm5.8-1.7-.2-1.6-.1-2c0-.6 0-1 .2-1.5.1-.5.5-.7 1.2-.7s1 .2 1.2.7v1.2l-.1 1.1.1.2h.1l.2-.4.3-.5.3-.5.3-.5.3-.4.4-.4.4-.2.5-.2h1.1l.9 1.6.5 2 .3 1.7.2 2.1v1.8c.4.9.3 1.4-.2 1.6-1.2.4-1.9.4-2-.2a42 42 0 0 1-.4-3.7 22 22 0 0 0-.5-3.8c-.7 1-1.2 2.1-1.5 3.2l-1.1 3c-.2.4-.6.6-1.1.7-.5 0-.8-.1-1-.6l-.2-1.1V7.3ZM31.2 12a5 5 0 0 1-2.1-2.6A5 5 0 0 1 29 6c.2-.6.5-1.4 1-2.1l.9-1.3c.4-.7 1-1.1 1.8-1 .8 0 1.5.5 2.1 1.1.6.7 1.1 1.7 1.5 2.9.5 2-.1 4-2.1 6-.3.3-.8.5-1.4.6s-1.2 0-1.6-.3Zm1-2.9c.7.1 1.2 0 1.5-.5.3-.5.4-1 .2-1.7s-.5-1.4-1-1.9c-.2-.2-.6 0-1.1.6-.7.8-1 1.6-1 2.3 0 .6.5 1 1.4 1.2ZM42.9.8l.6.2c.9 4 1.6 8.1 2 12.2h-.4c-.4.3-.7.3-1.1.1l-.6-.3A47 47 0 0 0 42 7.1l-.6 1.4-.7 1.2-.5.9-.8 1.1-.8 1.1c-.2.2-.6.3-.9.3-.3 0-.6-.2-.9-.4-.4-.3-.4-.9 0-1.7l1.5-2.7 1.4-2.6 1.2-2.3L42.1.7h.6v.1Zm13.4 7.8-.1 1.4-.3 1.2a2 2 0 0 1-.9.9c-.4.2-1 .3-1.6.3-.2-.5-.2-1.3 0-2.5s.2-1.9-.2-2.2c0-.1-.2-.2-.6-.2h-1.1c-.4 0-.6.2-.7.5-.2.3-.3.7-.4 1.3l-.3 1.6-.4 1.4a2 2 0 0 1-1 1c-.4.2-1 .2-1.6.1l.4-2.6c.3-1.3.4-2.2.2-3l-.3-.2c-.2-.1-.3-.3-.2-.4l.4-.6.4-.5-.1-1.9-.2-1.9c0-.4.1-1.1.4-1.9.1-.2.3-.3.7-.4l1.1.1c.4.1.6.4.6.7l.1 2.5c0 1 0 1.8.4 2.4.1.2.5.3 1.1.2s1-.2 1.2-.4c.2-.3.3-.6.3-1l-.1-1-.3-1.1-.3-1c0-.3.1-.6.6-.9.4-.2.9-.2 1.4-.2.5 0 .8.2 1 .4.3.4.5.9.5 1.4v3.3l.2.6v.5c.1.1.1.2 0 .4-.2.5-.2 1-.2 1.6Zm11.1-.9v3.5c0 .5-.1 1-.3 1.4-.2.5-.6.7-1.2.6-.6 0-1-.3-1.1-.8v-1.2l.2-1.1v-.2l-.2-.1-.3.5-.3.5-.3.5-.4.5-.4.4-.4.4-.4.2-.5.1h-1.1a8.5 8.5 0 0 1-1.2-3.6c-.2-1.2-.3-2.4-.3-3.7V3.9c-.3-.9-.1-1.4.3-1.5 1.3-.3 2-.2 2 .3l.3 3.6c0 1.6.2 2.8.4 3.7.6-.6 1.1-1.6 1.6-3.1s1-2.4 1.2-2.9c.2-.4.6-.6 1.1-.6.5 0 .8.2 1 .6l.2 1.1v2.7Zm1.7-3c-.1-1.1 0-2 .4-2.7s1-.9 1.9-.6c.3.1.5.3.6.6v1l-.1 1.1c0 .4 0 .7.2 1l.8-1.1.6-1.3.7-1.2c.3-.4.6-.6.9-.7s.7 0 1.2.1l.5.5.2 1.5c0 .7.2 1.3.3 1.6l.5-.7.6-.7.6-.7c.4-.4.8-.8 1.4-1 .2-.1.5-.2.8-.1l.9.2.4.5.1.9v.7c.5 3.9.2 7.2-.6 9.7-.1.5-.4.7-.9.8-.5.1-1 0-1.4-.3l-.1-.1v-.8c.8-2.7.9-5.5.5-8.3 0-.2-.1-.3-.4 0l-.2.3a18.4 18.4 0 0 0-2.3 5.6c-.2.5-.6.8-1.2 1s-1 0-1.4-.5V8c.2-.9 0-1.8-.1-2.7-.7.6-1.2 1.3-1.6 2.3l-1 3.5c-.2.4-.6.6-1.2.6s-.9-.2-1-.6c-.2-.7-.4-1.8-.3-3.2V4.5Zm15.6.9c0-1.3.4-2.3 1.2-3.2.9-.8 1.9-1.1 3.2-.9 1 .1 2 .6 2.7 1.5.7.8 1.1 1.8 1.1 2.9-.1.5-.9 1.1-2.2 1.9-.9.4-1.7 1-2.5 1.6-.1.1-.2.2-.1.4.2.4.5.6.8.8s.7.2 1.1.1c.8-.2 1.5-.4 2.2-.8.5.4.6.8.4 1.4-.2.6-.5.9-1.1 1l-.6.1h-.6l-.6.1h-1.2l-.6-.3c-2.1-.9-3.2-3.2-3.2-6.7ZM87.5 7c1.6 0 2.5-.6 2.8-1.6.3-.6 0-1.1-.7-1.4-.7-.3-1.4-.3-2 0-.4.2-.6.5-.7 1v1.4c.1.4.3.6.5.7ZM98.9.2l.6.1a74 74 0 0 1 3.3 12l-.4.2c-.3.2-.7.2-1.1.1-.4 0-.6-.2-.6-.2-.6-2.3-1.3-4.2-2.1-5.8l-.5 1.5-.5 1.3-.5.9-.6 1.1-.7 1.2c-.2.3-.5.4-.9.4s-.6-.1-.9-.3c-.5-.3-.5-.9-.1-1.7l1.2-2.8 1.1-2.7.9-2.4 1-2.8h.6Zm6 12.8c-.2 0-.4-.2-.5-.7V9.7l-.4-3v-.3l-.3-.5v-.4l.2-.2.2-.2V3.2l.1-1.9c0-.4.3-.7.7-.9.4-.2.7-.2 1 .1.2.2.4.6.4 1l-.1 1.1-.2 1.1c0 .4 0 .8.2 1.1.8 0 1.5.1 2.2.4a5 5 0 0 1 1.9 1c.6.5 1 1 1.2 1.7.2.6.2 1.3-.1 1.9a4 4 0 0 1-1.3 1.6c-.8.6-1.6 1-2.5 1.4a4 4 0 0 1-2.4.2Zm1.4-2c.8 0 1.5-.3 2.2-.7.7-.5 1-1 1-1.7s-.2-.8-.6-1.2c-.4-.4-.9-.6-1.5-.8-.6-.1-1.1-.2-1.6-.1 0 2.1.2 3.6.5 4.6Zm14.8-1.9-.1 1.3-.3 1.1a2 2 0 0 1-.9.9c-.4.2-.9.3-1.6.3-.2-.5-.2-1.3 0-2.4.2-1.1.2-1.9-.2-2.1 0-.1-.2-.2-.6-.2h-1.1c-.4 0-.6.2-.7.5-.2.3-.3.7-.4 1.3l-.3 1.5-.4 1.4c-.2.4-.5.8-.9 1-.4.2-1 .2-1.6.1 0-.4.1-1.3.4-2.5a6 6 0 0 0 .2-2.9l-.3-.2c-.2-.1-.2-.2-.2-.4l.4-.5.4-.5-.1-1.9-.2-1.9c0-.5.1-1 .4-1.8.1-.2.3-.3.7-.4s.7 0 1.1.1c.4.1.6.4.6.6l.1 2.4c0 1 0 1.8.4 2.3.1.2.5.3 1.1.2.6 0 1-.2 1.2-.4l.3-.9-.1-.9-.6-2c0-.3.1-.6.6-.9.4-.2.9-.2 1.3-.2.5 0 .8.2.9.4.3.4.5.8.5 1.3V6l.2.6v.5c.1.1.1.2 0 .4-.2.5-.2 1-.2 1.5Zm4.1 2.9a5 5 0 0 1-2.1-2.6A5 5 0 0 1 123 6c.2-.6.5-1.4 1-2.1l.9-1.3c.4-.7 1-1.1 1.8-1 .8 0 1.5.5 2.1 1.1.6.7 1.1 1.7 1.5 2.9.5 2-.1 4-2.1 6-.3.3-.8.5-1.4.6s-1.2 0-1.6-.3Zm1-2.9c.7.1 1.2 0 1.5-.5.3-.5.4-1 .2-1.7s-.5-1.4-1-1.9c-.2-.2-.6 0-1.1.6-.7.8-1 1.6-1 2.3 0 .6.5 1 1.4 1.2Z"/></svg>