<?xml version="1.0" encoding="UTF-8"?>
<svg id="_Слой_1" data-name="Слой_1" xmlns="http://www.w3.org/2000/svg" xmlns:i="http://ns.adobe.com/AdobeIllustrator/10.0/" version="1.1" viewBox="0 0 154.5 33.5">
  <!-- Generator: Adobe Illustrator 29.1.0, SVG Export Plug-In . SVG Version: 2.1.0 Build 142)  -->
  <defs>
    <style>
      .st0 {
        fill: #b50f3e;
      }
    </style>
  </defs>
  <path class="st0" d="M129.42,26.56c1.15,2.03-3.22,3.53-4.05,1.62-.06-.18-.5-.34-.51-.93-.01-.92.81-2.78.98-3.87.46-2.83.28-5.33.07-8.16l-.94.27c-1.67,2.12-2.83,8.07-5.12,9.18-5.18,2.53-2.11-6.92-2.85-7.84-.35-.44-.48.11-.6.34-.98,1.81-3.5,10.49-6.84,7.5-.66-.59-.61-2.16-.66-2.98-.15-2.33-.24-4.67-.27-7.02-.04-.26-.26-.48-.27-.54-.75-.05-.68-.25,0-.54.25-2.33,1.44-4.63,4.11-3.43,2.24,1-.04,3.37,1.15,4.78,2.33-2.01,2.07-6.51,6.09-5.54,2.52.6,1.13,3.1,2.27,4.73,1.54-1.62,3.14-4.06,5.67-4.06.88,0,2.05.26,2.28,1.25.34,1.48.52,4.58.57,6.18.08,2.76-.16,6.44-1.09,9.05Z"/>
  <path class="st0" d="M87.86,14.95c1.82-2.07,2.62-7.41,6.11-7.54,1.47-.06,1.67.87,1.32,2.15-.52,1.87-3.16,5.21-4.05,7.55-1.66,4.35-1.24,7.82-3.97,12.22-1.38,2.22-2.98,3.93-5.9,3.04-2.03-.62-3.19-5.64.14-5,1.13.22,1.01,1.68,1.77,1.22,1.48-.91,2.33-4.05,2.42-5.68.13-2.32-1.15-3.83-1.59-5.96-.37-1.82-.76-5.14-.84-7-.09-2.03,1.41-3.51,3.32-2.5,1.56.83,1.18,5.84,1.27,7.5Z"/>
  <path class="st0" d="M74.91,11.72c-.12-2.37-.99-6.53-.33-8.56.48-1.47,2.45-2.68,3.72-1.43,1.01.99.38,1.81.38,2.83.01,5.09.78,13.76-.02,18.33-.34,1.97-1.23,4.75-3.73,3.24-1.77-1.07-.16-4.89-.03-6.73.19-2.5.12-5.28,0-7.69Z"/>
  <path class="st0" d="M151.57,26.72c.5-5.9,2.94-10.74,1.59-17.16-.43-2.06-1.94-4.84-4.43-4.59-2.35.24-3.62,5.86-3.67,7.82-.38.07-.35.05-.56-.17-.4-.42-.88-1.41-1.33-1.85-2.98-2.95-6.69-3-7.96,1.48-1.78,6.26,3,11.47,8.24,14.04,1.15.56,4.3,1.41,4.97,1.91.65.48.37,1.76,1.36,2.42,1.06.71,1.06-.81,1.38-1.61.69-1.67.28-.8.41-2.29ZM151.29,14.56c-.29,3.83-1.83,7.87-2.17,11.73-3.92-1.04-11.79-5.22-12.39-9.6-.29-2.11.31-4.42,2.67-4.86,3.23-.6,5.73,6.03,6.61,5.83.73-.17.85-3.29,1.03-4.1.29-1.29,1.01-5.17,2.73-5.08.48.03,1.31.52,1.46,1,.21.72.13,4.14.06,5.08Z"/>
  <path class="st0" d="M17.16,9.02c-1.72-.52-2.48-.81-4.14.31-1.58,1.07-2.13,3.21-3.41,4.54-.46-2.28-2.65-7.08-5.26-6.96-1.05.05-1.8.89-2.03,1.15-3.51,3.95,1.06,13.96,1.89,15.79.44.97,1.01,2,1.62,3.78.38,1.09,1.05,2.11,1.2,3.26.03.25.17,1.07.64,1.38.14.09.34.13.63.09,1.12-.18.53-1.9.91-2.57.15-.25,4.06-2.59,4.85-3.25,5.35-4.47,9.16-11.88,3.11-17.53ZM8.66,27.9c-.99-1.9-1.88-3.96-2.69-5.94-.94-2.32-3.47-8.36-2.79-10.6.15-.49.96-.91,1.44-.89,1.24.06,2.77,3.17,3.23,4.22.43.98,1.16,5.33,2.41,3.48.84-1.23,1.15-3.26,2.26-4.76,3.01-4.1,6.94-.16,5.92,4.04-1.11,4.57-6.19,7.9-9.78,10.46Z"/>
  <path class="st0" d="M108.37,13.61c-.4-.94-.37-1.81-.84-2.8-1.39-2.88-5.07-2.94-7.79-2.19-.37.1-2.85,1.11-2.93,1.25-.35.56.25,3.22.95,3.44.97.3,3.91-1.75,6.15-1.31.94.18,1.28,1.22.68,1.88l-2.97.27c-2.37.41-4.17.75-5.67,2.83-1.72,2.39-1.56,6.22,1.2,7.7,1.86.99,4.57.73,5.88,1.4.78.39,1.32,2.63,2.75,1.01,1.51-1.71,1-10.39,2.57-12.94-.02-.15-.02-.38,0-.54ZM103.49,22.48c-2.18.33-7.13-.42-4.95-3.47.69-.97,3.44-1.53,4.62-1.61,2.46-.16.56,3.69.34,5.08Z"/>
  <path class="st0" d="M61.57,13.32c-.77-3.21-5.96-2.67-7.18-3.62-.55-.42.28-2.54-2.02-2.53-.59,0-1.21.16-1.6.47-.79.63-.69,1.83-.69,3.27,0,.99-.18,2.64-.54,5.94-.28,2.59-.58,2.74-.82,4.71-.6,4.8.39,10.23,2.33,10.94.62.23,1.39.15,2.34-.33,1.12-.57-.31-1.86-.63-2.76-.92-2.63-1.02-5.48-.48-8.2,4.19-1.17,10.75-1.75,9.29-7.89ZM54.59,12.84c.71-.2,3.05.48,3.27,1.23.74,2.53-4.04,5.16-4.95,3.32-.5-1.01.53-4.22,1.68-4.54Z"/>
  <path class="st0" d="M35.51,11.18c-1.33-.44-2.45-.67-3.24-.81-1.24-.21-1.76-.2-2.17-.67-.62-.72-.12-1.61-.8-2.2-.28-.24-.72-.38-1.42-.32-.16.02-.96.08-1.49.58-.68.63-.41,1.45-.59,3.68-.06.77-.06.23-.48,3.26-.17,1.22-.38,2.86-.59,4.83-.19,2.37-.43,4.76-.28,7.16.16,2.49.26,5.99,3.57,5.73,2.83-.22,1.02-1.54.54-2.83-.99-2.68-1.1-5.62-.55-8.4,2.26-.82,5.03-.96,7.12-2.2,2.78-1.64,3.27-6.01.4-7.83ZM29.45,17.92c-2.03-.38-.33-4.78.86-5.08.45-.12,2.17.28,2.61.53,2.12,1.2-.91,5.03-3.47,4.55Z"/>
  <path class="st0" d="M67.27,7.72c-1.25.37-3.77,4.96-3.94,6.31-.48,3.62,1.56,8.34,5.76,7.65,1.8-.29,3.94-3.82,4.17-5.54.47-3.37-1.68-9.7-5.99-8.42ZM66.13,14.68c.16-.63,1.33-2.5,1.95-2.66.97-.26,1.96,2.28,1.99,3.08.1,3.41-4.76,2.72-3.94-.42Z"/>
  <path class="st0" d="M44.95,7.67c-1.9-.46-3.61.85-3.89,1.06-3.05,2.34-3.2,7.64-.97,10.68.36.49,1.72,2.33,3.72,2.36,2.01.03,3.87-1.75,4.77-4.38,1.29-3.76-.47-8.95-3.64-9.71ZM41.84,14.68c.16-.63,1.33-2.5,1.95-2.66.97-.26,1.96,2.28,1.99,3.08.1,3.41-4.76,2.72-3.94-.42Z"/>
</svg>