
<svg id="_Слой_1" data-name="Слой_1" xmlns="http://www.w3.org/2000/svg" xmlns:i="http://ns.adobe.com/AdobeIllustrator/10.0/" version="1.1" viewBox="0 0 465.5 88.5">
  <!-- Generator: Adobe Illustrator 29.1.0, SVG Export Plug-In . SVG Version: 2.1.0 Build 142)  -->
  <defs>
    <style>
      .st0 {
        fill: #b50f3e;
      }
    </style>
  </defs>
  <path class="st0" d="M13.29,72.31c-.64,0-1.27-.16-1.88-.47s-1.14-.7-1.58-1.17c-.91-1.12-1.39-2.45-1.44-3.97,0-2.45-.19-4.86-.57-7.24-.09-.96-.48-4.15-1.18-9.58-.38-2.65-.73-5.31-1.05-7.99-1.29,0-2.32-.35-3.11-1.04-.23-.23-.47-.43-.7-.6-.93-1.12-1.42-2.5-1.44-4.12,0-1.36.48-2.63,1.44-3.82.67-.76,1.55-1.27,2.63-1.54-.17-2.15-.26-4.28-.26-6.4l.04-2.23c.15-4.33.7-8.01,1.66-11.02,1.14-3.84,3.04-6.76,5.69-8.78.88-.63,1.78-1.11,2.72-1.44,1.11-.4,2.25-.61,3.42-.64.85,0,1.68.08,2.5.25l.44.05c.76.13,1.49.35,2.19.64,2.19.86,4.25,2.02,6.18,3.47,1.14.83,1.9,1.95,2.28,3.37.12.46.18.93.18,1.39,0,.99-.22,1.97-.66,2.93-.29.6-.72,1.12-1.27,1.59-.94.76-1.94,1.14-3.02,1.14-.88,0-1.69-.25-2.45-.74-1.14-.86-2.29-1.6-3.46-2.23-1.05-.4-1.9-.63-2.54-.69-.47.03-.73.07-.79.1-.06.03-.1.05-.13.05-.32.27-.63.56-.92.89-.88,1.46-1.52,3.62-1.93,6.5-.15,1.79-.23,3.59-.26,5.41,0,1.82.07,3.66.22,5.51,1.66-.33,3.15-.5,4.47-.5,1.4,0,2.8.15,4.2.45,1.31.4,2.31,1.26,2.98,2.58.44.86.66,1.77.66,2.73,0,1.36-.34,2.51-1.01,3.47-.44.6-.92,1.08-1.44,1.44-.67.5-1.56.74-2.67.74-.38,0-.76-.07-1.14-.2l-1.4-.05c-.7,0-1.42.03-2.15.1-.44.1-.89.18-1.36.25.35,2.91.73,5.82,1.14,8.73.32,2.35.61,4.68.88,7l.17,1.59c.41,2.81.66,5.64.74,8.49,0,1.52-.49,2.83-1.47,3.92-.98,1.09-2.15,1.65-3.53,1.69Z"/>
  <path class="st0" d="M47.64,62.13l-.22.02c-1.17.1-2.3-.23-3.4-1-.98-.81-1.55-1.79-1.71-2.96l-.13-1.52c-.24-2.76-.45-8.88-.62-18.36.02-3.1-.09-6.17-.36-9.22l-.06-.7c-.11-1.22.28-2.3,1.15-3.23.88-.93,2.06-1.47,3.54-1.63,1.2-.1,2.34.23,3.44,1,1.04.83,1.61,1.83,1.72,3l.08.98c.13,1.51.2,3.04.22,4.59.14,4.34.24,8.7.3,13.08l.04,1.02c0,2.7.12,5.4.35,8.08l.23,2.18c.09,1.04-.31,2.07-1.19,3.09-.92.95-2.05,1.48-3.39,1.59Z"/>
  <path class="st0" d="M46.62,17.55l-.57-.16c-1.19-.5-2.19-1.55-3-3.15-.81-1.6-1.36-3.34-1.66-5.21-.3-1.87-.28-3.46.05-4.77.52-1.83,1.58-2.79,3.16-2.88.57-.06,1.14-.01,1.68.14,1.96.56,3.29,2.34,3.99,5.35,2.34-1.7,4.4-2.29,6.19-1.78.62.18,1.21.51,1.78.99.97.88,1.27,1.99.89,3.32-.88,2.18-2.79,4.2-5.74,6.07-2.54,1.61-4.8,2.3-6.78,2.09Z"/>
  <path class="st0" d="M194.37,60.45h-.24c-1.31,0-2.53-.46-3.67-1.39-.23-.22-.44-.46-.64-.72l-.15-.13c-.56-.81-.83-1.64-.83-2.49,0-2.61-.03-5.21-.1-7.8-.13-6.83-.75-14.15-1.86-21.96v-.25c0-1.07.54-2.11,1.62-3.12,1.11-.9,2.47-1.36,4.07-1.39,1.34,0,2.6.46,3.77,1.39.52.42.9.93,1.13,1.52.29.45.44.96.44,1.52,1.57-1.35,3.32-2.47,5.24-3.37,1.99-.87,3.71-1.42,5.14-1.64.98-.2,2.01-.3,3.09-.3s2.16.15,3.14.46c1.37.39,2.58,1.01,3.63,1.85,1.76,1.57,2.71,3.54,2.84,5.9v.46c0,1.04-.13,2.07-.39,3.08-.13.62-.43,1.17-.88,1.64-1.24,1.21-2.69,1.81-4.36,1.81-1.34,0-2.48-.32-3.43-.97-.59-.39-1.06-.84-1.42-1.35-.49-.7-.74-1.57-.74-2.61l.05-.55c-.85.25-1.86.75-3.04,1.48-.62.45-1.21.94-1.76,1.48-.52.7-1,1.43-1.42,2.19-1.47,3.32-2.47,6.74-2.99,10.29-.46,3.37-.69,6.79-.69,10.24,0,1.26-.55,2.36-1.64,3.29-1.1.93-2.39,1.41-3.9,1.43Z"/>
  <path class="st0" d="M69.78,14.73c2.59-.14,4.7.45,6.35,1.77,1.64,1.31,2.76,2.86,3.37,4.64.61,1.78,1.39,3.77,2.37,5.97.97,2.2,2.07,3.85,3.29,4.95,1.13-.67,2.45-1.75,3.98-3.23,1.53-1.48,2.91-2.82,4.14-4.01,1.23-1.19,2.55-2.25,3.93-3.18,1.39-.93,2.77-1.31,4.14-1.14,1.37.17,2.68.97,3.92,2.41,1.18,1.71,1.63,3.09,1.35,4.13-.29,1.04-1.15,2.18-2.59,3.42-1.44,1.24-2.95,2.33-4.54,3.26-1.59.94-3.1,2.13-4.53,3.57-1.43,1.44-2.24,2.92-2.43,4.43-.45,3.03,2.01,6.42,7.41,10.16,1.29,1.16,3.04,2.95,5.25,5.36,2.21,2.41,3.96,4.2,5.25,5.36,2.08,1.87,1.73,3.63-1.05,5.28-2.25,1.35-4.38,1.84-6.38,1.46-.14-.06-.24-.09-.31-.09-1.94-.58-3.84-1.81-5.68-3.7-1.84-1.89-3.36-3.77-4.55-5.65-1.19-1.88-2.69-3.67-4.49-5.35-1.8-1.68-3.66-2.68-5.59-2.98-.76-.1-1.49.3-2.19,1.19-.71.89-1.45,2.06-2.22,3.5-.78,1.44-1.46,2.49-2.04,3.13-1.19,1.98-3.12,3.03-5.78,3.18s-4.48-.72-5.47-2.58c-.78-1.8-.76-3.65.07-5.54.82-1.89,1.97-3.52,3.43-4.9,1.46-1.37,2.85-2.99,4.15-4.83,1.3-1.85,1.94-3.59,1.93-5.23-.04-2.05-.79-4.3-2.25-6.75-1.46-2.45-2.96-4.93-4.49-7.45-1.53-2.51-2.36-4.9-2.48-7.15-.39-.87-.04-1.64,1.06-2.31s2.32-1.04,3.68-1.12Z"/>
  <path class="st0" d="M146.45,28.37c.08-.48-.18-1.26-.78-2.34-.6-1.08-.7-1.94-.3-2.58,1.04-.88,1.6-2.62,1.68-5.21.08-2.6.8-4.33,2.16-5.21,1.68-1.2,3.35-1.84,5.03-1.92,1.68-.08,3.12.56,4.31,1.92.64.64,1,1.76,1.08,3.35.08,1.6.28,2.48.6,2.64,2.88.32,5.51.78,7.91,1.38,2.4.6,4.85,1.46,7.37,2.58,2.52,1.12,4.43,2.72,5.75,4.79,1.32,2.08,1.82,4.47,1.5,7.19-.32,3.04-1.18,5.57-2.58,7.61-1.4,2.04-3.24,3.59-5.51,4.67-2.28,1.08-4.47,1.92-6.59,2.52s-4.63,1.22-7.55,1.86c-2.92.64-5.17,1.24-6.77,1.8-.96,5.83-1.34,10.24-1.14,13.24.2,3,1.14,7.37,2.82,13.12,0,.24.16.58.48,1.02.32.44.7.96,1.14,1.56.44.6.78,1.1,1.02,1.5.96,2,.16,3.24-2.4,3.71-2.56.48-4.71.32-6.47-.48-.4-.16-.8-.38-1.2-.66-.4-.28-.74-.54-1.02-.78-.28-.24-.54-.6-.78-1.08-.24-.48-.44-.86-.6-1.14-.16-.28-.34-.74-.54-1.38-.2-.64-.34-1.12-.42-1.44-.08-.32-.18-.84-.3-1.56s-.18-1.22-.18-1.5-.06-.82-.18-1.62c-.12-.8-.18-1.28-.18-1.44-.4-3.04-.64-6.13-.72-9.29-.08-3.15.02-6.35.3-9.59.28-3.24.56-6.17.84-8.81.28-2.64.66-5.79,1.14-9.47.48-3.67.84-6.67,1.08-8.99ZM159.15,28.96c-1.6,1.6-2.76,4.25-3.48,7.97-.72,3.71-.44,5.93.84,6.65,2.47,1.12,5.45.76,8.93-1.08,3.48-1.84,5.45-4.63,5.93-8.39.48-2.8-.88-4.51-4.07-5.15-1.44-.64-2.93-1-4.49-1.08-1.56-.08-2.78.28-3.65,1.08Z"/>
  <path class="st0" d="M247.29,40.96c.75-5.21,2.92-9.46,6.51-12.77.11-.11.55-.53,1.32-1.26.77-.73,1.27-1.19,1.48-1.39.21-.2.7-.62,1.45-1.26.75-.64,1.29-1.08,1.61-1.31.32-.23.85-.58,1.57-1.06.73-.48,1.31-.79,1.74-.94.43-.15,1-.34,1.71-.57.7-.23,1.32-.36,1.83-.37.52-.01,1.11.03,1.77.12.38.05.46.1,1.09.24.93.2,1.57.3,1.74.34.67.12,3.91,1.02,4.8,3.6.81,2.37-.6,5.48-2.4,5.99-1.36.39-1.99-.99-4.8-1.2-1.71-.13-3.05.27-3.65.45-.46.14-2.01.61-3.8,2.05-3.97,3.21-6.02,6.53-6.16,9.98-.15,3.06.48,5.59,1.9,7.58.4.65.93,1.19,1.59,1.64.67.45,1.25.76,1.74.94.5.18,1.24.41,2.23.69.99.28,1.68.49,2.06.65,1.27.46,2.52.32,3.76-.41,1.24-.74,2.47-1.61,3.71-2.63,1.23-1.01,2.31-1.56,3.24-1.63.82-.07,1.38.13,1.69.62.31.48.39,1.11.25,1.88-.15.77-.33,1.47-.57,2.1-.23.63-.48,1.17-.74,1.61-3.11,4.99-9.09,6.33-17.93,4.02-3.79-1-6.67-3.18-8.63-6.52-1.96-3.34-2.66-7.07-2.1-11.18Z"/>
  <path class="st0" d="M282.85,32.65c-.14-5.05,1.45-9.12,4.74-12.21,3.3-3.09,7.4-4.31,12.31-3.63,4.04.54,7.55,2.49,10.55,5.85,2.99,3.37,4.46,7.13,4.39,11.3-.61,1.88-3.38,4.29-8.33,7.22-4.95,2.93-7.76,4.73-8.43,5.4-.34.07-.76.34-1.26.81-.51.47-.62.91-.35,1.31.81,1.48,1.82,2.52,3.03,3.13,1.21.61,2.57.77,4.09.5,1.51-.27,2.89-.64,4.14-1.11,1.24-.47,2.71-1.14,4.39-2.02,1.75,1.35,2.3,3.15,1.67,5.4-.64,2.25-2,3.55-4.09,3.89-.14,0-.88.12-2.22.35-1.35.24-2.19.37-2.52.4-.34.04-1.08.1-2.22.2s-2.02.1-2.62,0c-.6-.1-1.35-.23-2.22-.4-.87-.17-1.71-.42-2.52-.76-8.07-3.63-12.25-12.18-12.51-25.64ZM293.85,37.8c6.06-.27,9.69-2.39,10.9-6.36,1.08-2.35.2-4.15-2.62-5.4-2.83-1.24-5.35-1.29-7.57-.15-1.35.74-2.24,2.07-2.67,3.99s-.42,3.7.05,5.35c.47,1.65,1.11,2.51,1.92,2.57Z"/>
  <path class="st0" d="M416.8,22.67c.55.24,1.66.68,3.33,1.32,1.67.64,2.9,1.14,3.69,1.5.79.36,1.7.96,2.74,1.78,1.03.82,1.79,1.75,2.28,2.78.37.67.35,1.52-.04,2.55-.4,1.03-.87,1.73-1.41,2.1-1.28.79-3.01.58-5.2-.64-2.19-1.22-4.21-2.34-6.06-3.37-1.85-1.03-4.09-.91-6.7.36-1.16.79-1.18,1.98-.09,3.56,1.09,1.58,2.25,2.58,3.46,3.01,6.32,2.25,11.12,4.89,14.41,7.93,1.21,1.46,1.75,3.16,1.6,5.11-.15,1.95-.78,3.8-1.87,5.56-1.58,2.68-4.16,4.79-7.75,6.34-3.59,1.55-7.26,1.93-11.03,1.14-3.77-.79-6.5-2.95-8.2-6.47-.61-1.21-.4-2.42.64-3.6,1.03-1.19,2.25-1.84,3.65-1.96.79-.06,1.56.55,2.32,1.82.76,1.28,1.38,2.04,1.87,2.28,2.13,1.22,4.62,1.26,7.47.14,2.86-1.12,4.29-2.93,4.29-5.42,0-.61-.47-1.32-1.41-2.14-.94-.82-1.87-1.44-2.78-1.87-.67-.3-2.16-.93-4.47-1.87-2.31-.94-3.97-1.66-4.97-2.14-1-.49-2.19-1.31-3.56-2.46-1.37-1.15-2.39-2.46-3.05-3.92-1.09-2.25-.64-4.63,1.37-7.16,2.01-2.52,4.6-4.41,7.79-5.65,3.19-1.25,5.76-1.44,7.7-.59Z"/>
  <path class="st0" d="M232.54,58.66h-.22c-1.18,0-2.29-.42-3.33-1.26-.92-.86-1.41-1.87-1.46-3.02v-1.49c0-2.7.33-8.65.98-17.86.29-3,.44-5.99.44-8.97v-.69c0-1.2.48-2.21,1.44-3.03.96-.83,2.2-1.25,3.7-1.28,1.21,0,2.34.42,3.37,1.26.98.89,1.46,1.91,1.46,3.05v.95c0,1.48-.06,2.96-.18,4.47-.24,4.22-.52,8.46-.84,12.71l-.04.99c-.24,2.62-.35,5.24-.35,7.86l.04,2.14c0,1.02-.49,1.98-1.46,2.9-1.01.84-2.19,1.26-3.55,1.26Z"/>
  <path class="st0" d="M236.54,16.18l-.59.02c-1.29-.12-2.56-.82-3.81-2.1-1.25-1.28-2.3-2.77-3.16-4.47-.85-1.7-1.32-3.22-1.39-4.57-.06-1.9.66-3.14,2.14-3.7.53-.23,1.08-.35,1.65-.37,2.03-.06,3.84,1.24,5.42,3.9,1.72-2.32,3.5-3.51,5.36-3.57.64-.02,1.31.12,1.99.4,1.19.55,1.81,1.51,1.85,2.9-.18,2.34-1.4,4.85-3.64,7.52-1.93,2.3-3.88,3.65-5.83,4.04Z"/>
  <path class="st0" d="M374.5,57.09c-.75-.72-1.65-1.06-2.68-1.02l-.6.02c-2.58.1-5.18.08-7.79-.06-3.21-.08-5.94-.14-8.23-.18.25-1.11.45-2.24.54-3.42.24-3.13.21-6.72-.1-10.78-.31-4.06-.39-7.17-.26-9.34.14-1.86.21-3.88.21-6.04s-.03-4.57-.1-7.22c-.07-2.65-.1-4.66-.1-6.04,0-.24.1-.83.31-1.76.21-.93.27-1.55.21-1.85-.14-1.68-.91-2.81-2.31-3.38-1.41-.57-2.9-.59-4.47-.05-1.58.54-2.67,1.38-3.29,2.53-.82,1.44-1.29,3.13-1.39,5.05-.1,1.93.02,3.71.36,5.37.34,1.65.7,3.56,1.08,5.73.38,2.16.53,4,.46,5.5-.07,1.44-.12,4.28-.15,8.52-.04,4.24-.22,7.76-.57,10.55-.34,2.8-.96,5.55-1.85,8.25-.02.04-.02.08-.03.12-.45.69-.67,1.4-.63,2.15v.17c.06,1.05.47,1.96,1.23,2.71.83.73,1.69,1.07,2.57,1.04l1.85-.1c2.27-.08,4.55-.08,6.83.02h.86c3.7.12,7.38.2,11.05.25,1.31.04,2.6.04,3.88,0l.83-.03c.99-.04,1.86-.45,2.59-1.23.69-.83,1.01-1.72.97-2.66-.08-1.17-.49-2.11-1.25-2.83Z"/>
  <path class="st0" d="M388.79,62.48h-.17c-.88.09-1.75-.23-2.59-.96-.76-.76-1.2-1.68-1.34-2.76l-.12-1.41c-.22-2.55-.47-8.2-.74-16.95-.03-2.86-.16-5.69-.4-8.51l-.06-.65c-.1-1.13.18-2.12.83-2.96.65-.84,1.54-1.33,2.66-1.45.91-.08,1.78.25,2.62.97.8.78,1.25,1.71,1.34,2.79l.08.9c.12,1.39.2,2.81.23,4.23.17,4.01.31,8.03.41,12.07l.05.94c.04,2.49.16,4.98.38,7.45l.21,2.02c.08.96-.2,1.91-.86,2.84-.68.86-1.53,1.33-2.55,1.42Z"/>
  <path class="st0" d="M387.86,19.33l-.53-.15c-1.11-.47-2.05-1.45-2.8-2.94-.75-1.49-1.27-3.12-1.55-4.87-.28-1.75-.26-3.23.05-4.45.49-1.71,1.47-2.6,2.95-2.69.54-.06,1.06-.01,1.57.13,1.83.52,3.07,2.19,3.72,4.99,2.18-1.58,4.11-2.14,5.77-1.66.58.16,1.13.47,1.66.92.91.83,1.19,1.86.83,3.1-.82,2.03-2.61,3.92-5.36,5.67-2.37,1.5-4.48,2.15-6.32,1.95Z"/>
  <path class="st0" d="M451.27,63.92c-1.02,0-2.04-.14-3.06-.42-1.74-.47-3.28-1.31-4.63-2.5-.55-.47-1.05-1.01-1.49-1.63l-.25-.38c-.39-.47-.7-.99-.95-1.54-.8-1.61-1.32-3.32-1.57-5.13-.3-2.11-.45-4.21-.45-6.3,0-3.03.32-6.63.95-10.81l.17-1.29c-.66,0-1.32-.03-1.98-.08-.86,0-1.64-.21-2.36-.63l-.95-.75c-.88-.92-1.34-2.07-1.36-3.46,0-1.14.45-2.2,1.36-3.17.39-.39.85-.72,1.41-.98s1.09-.4,1.61-.4c1.76.08,2.95.13,3.55.13.25-2.2.37-4.41.37-6.63v-.88c0-1.25.46-2.32,1.36-3.21.91-.89,2.01-1.35,3.31-1.38.64,0,1.24.13,1.82.4.58.26,1.06.59,1.45.98.91,1,1.36,2.11,1.36,3.34v1.13c0,1.06-.03,2.1-.08,3.13l-.25,2.75h.83c1.98,0,3.95.17,5.91.5,1.18.33,2.11,1.06,2.77,2.17.41.72.62,1.49.62,2.29,0,1.17-.32,2.14-.95,2.92-.39.5-.83.9-1.32,1.21-.64.42-1.48.63-2.52.63-.41,0-.88-.07-1.41-.21-1.02-.08-2.03-.13-3.02-.13l-2.15.04-.54,3.8c-.44,2.95-.66,5.9-.66,8.84,0,1.36.07,2.71.21,4.05.14.86.34,1.71.62,2.54.22.45.51.86.87,1.25.33.2.66.32.99.38h1.32c.99-.22,1.96-.51,2.89-.88,1.13-.5,2.22-1.08,3.27-1.75.72-.42,1.47-.63,2.27-.63,1.82,0,3.18.77,4.09,2.29.41.72.62,1.5.62,2.34,0,.45-.06.88-.16,1.29-.36,1.22-1.06,2.17-2.11,2.84-3.75,2.25-7.25,3.53-10.5,3.84l-1.28.08Z"/>

</svg>