
<svg id="_Слой_1" data-name="Слой_1" xmlns="http://www.w3.org/2000/svg" xmlns:i="http://ns.adobe.com/AdobeIllustrator/10.0/" version="1.1" viewBox="0 0 201.5 33.5">
  <!-- Generator: Adobe Illustrator 29.1.0, SVG Export Plug-In . SVG Version: 2.1.0 Build 142)  -->
  <defs>
    <style>
      .st0 {
        fill: #b50f3e;
      }
    </style>
  </defs>
  <path class="st0" d="M11.59,21.44c-.98,1.16-2.07,1.96-3.28,2.4-1.21.44-2.37.55-3.48.34-1.11-.21-2.22-.67-3.32-1.39-.39-.26-.65-.75-.78-1.49-.13-.74-.04-1.45.25-2.13.32-.15.62-.14.9.04.96,1.25,2.07,2,3.33,2.25,1.26.25,2.32-.03,3.19-.84.87-.81,1.44-1.76,1.71-2.85.14-.84.22-1.55.25-2.15.03-.6-.07-1.11-.29-1.55-.22-.43-.47-.84-.74-1.22-.27-.38-.54-.8-.8-1.26-.52-.36-1.03-.66-1.51-.91-.48-.24-1.17-.46-2.04-.64-.88-.18-1.84.14-2.9.97-.45.43-.72.03-.82-1.19-.05-.28-.07-.71-.07-1.3l-.04-.23c.13,0,.24-.11.34-.34.09-.23.17-.34.22-.34,1.31-.14,2.45-.18,3.42-.11.97.07,2,.37,3.08.92s2.03,1.36,2.84,2.46c.6.84,1.07,1.91,1.42,3.21.35,1.3.47,2.61.39,3.95-.09,1.33-.51,2.47-1.28,3.4ZM8.36,15.44c.16.05.35.12.59.21s.42.16.57.21c.14.05.31.11.49.17.18.07.33.13.43.19.1.06.21.13.31.19.1.06.18.13.24.19.05.06.09.14.12.23.03.09.03.18.02.27-.01.09-.06.2-.14.32-.11.18-.26.3-.46.38-.2.07-.37.12-.51.13-.14.01-.36,0-.65-.02l-3.15-.06c-.58-.03-.89-.35-.94-.96-.05-.61.11-1.1.48-1.48.45-.48,1.31-.47,2.6.02Z"/>
  <path class="st0" d="M16.29,13.06c-.14-1.42.03-2.59.51-3.53.48-.94,1.33-1.21,2.54-.81.43.15.7.43.83.83.12.4.13.84.01,1.32s-.18.97-.2,1.48c-.02.51.08.94.28,1.28.35-.34.71-.83,1.07-1.48.36-.64.66-1.22.9-1.73.24-.51.56-1.02.95-1.53.39-.51.8-.81,1.22-.89.42-.08.99-.01,1.72.21.35.37.58.6.68.7.1.39.19,1.07.27,2.03.08.97.21,1.69.38,2.18.18-.19.42-.49.72-.89.3-.4.56-.73.76-1,.2-.27.46-.57.78-.91.32-.34.62-.6.91-.78s.61-.35.95-.51c.34-.16.69-.22,1.06-.19.36.03.75.13,1.15.3.25.17.42.41.51.7.09.29.13.67.13,1.14s0,.77.03.92c.6,5.2.28,9.51-.95,12.92-.15.61-.58.97-1.27,1.09-.7.12-1.33-.02-1.91-.42-.05,0-.1-.07-.15-.2-.05-.13-.07-.3-.07-.49s.03-.38.08-.55c1.05-3.04,1.3-6.68.75-10.91,0-.34-.17-.35-.53-.04-.15.12-.25.25-.31.4-1.35,2.02-2.42,4.49-3.22,7.41-.28.63-.82,1.07-1.62,1.33-.8.25-1.42.05-1.87-.62.11-1.15.19-2.48.23-3.99.05-1.51-.06-2.72-.34-3.63-.99.75-1.71,1.75-2.16,2.99s-.91,2.78-1.37,4.61c-.36.53-.9.8-1.63.8s-1.2-.28-1.39-.81c-.35-.98-.49-2.39-.43-4.23.06-1.84.06-3.34,0-4.49Z"/>
  <path class="st0" d="M46.89,25.15c-.21-.09-.45-.31-.71-.66s-.48-.51-.65-.48c-.36,0-.89,0-1.61,0s-1.29-.02-1.71-.05c-.42-.03-.92-.09-1.49-.19s-1.07-.28-1.51-.54c-.44-.26-.82-.6-1.16-1.02-.56-.64-.86-1.47-.9-2.51-.03-1.04.16-1.9.57-2.59.47-.82,1.07-1.5,1.78-2.05.71-.55,1.41-.94,2.1-1.17.69-.24,1.34-.4,1.96-.5s1.13-.14,1.54-.15l.6-.04c.17-.27.21-.7.13-1.3s-.31-.91-.69-.94c-.39-.12-.9-.09-1.52.09-.62.18-1.06.32-1.31.43-.25.11-.66.33-1.24.66-.58.33-1.02.57-1.33.71-.62.3-1.13.02-1.55-.84-.42-.86-.52-1.43-.3-1.7.86-.75,1.92-1.36,3.17-1.85,1.25-.48,2.54-.66,3.86-.52,1.32.13,2.31.7,2.97,1.69.44.65.73,1.4.88,2.25.15.85.19,1.62.11,2.32-.07.7-.15,1.53-.24,2.51-.09.98-.11,1.81-.07,2.49.2,3.06.08,4.95-.36,5.67-.32.46-.76.56-1.32.32ZM45.64,20.87c.03-.35.09-.78.17-1.31.08-.52.15-.95.19-1.27s.03-.71-.04-1.15c-.07-.44-.23-.88-.49-1.31-.38.2-.96.41-1.75.65-.79.24-1.45.45-1.97.62s-.98.51-1.37.99c-.39.48-.55,1.08-.48,1.81.06.48.57.86,1.53,1.12.96.27,1.85.36,2.67.27.82-.08,1.34-.22,1.54-.42Z"/>
  <path class="st0" d="M52.86,16.26c0-.45-.04-1.2-.12-2.25-.08-1.05-.1-1.95-.07-2.69.03-.74.17-1.41.4-2,.26-.64.85-.94,1.77-.89.91.05,1.47.42,1.67,1.13.11.39.07.95-.12,1.68-.19.73-.29,1.23-.29,1.51.06.06.13.17.21.34.09.11.14.17.17.17.06-.08.2-.31.42-.67.22-.36.37-.61.44-.73s.22-.34.44-.65c.22-.31.39-.52.5-.63.12-.11.28-.29.5-.52.22-.24.42-.4.59-.48s.39-.19.63-.31c.25-.13.49-.19.72-.21.23-.01.49-.01.76,0,.27.02.57.07.89.15.46.7.84,1.44,1.14,2.22.3.77.52,1.69.66,2.76.14,1.07.23,1.85.29,2.34.06.49.11,1.45.16,2.86.05,1.42.07,2.24.07,2.46.28,1.24.09,1.95-.58,2.14-1.86.47-2.84.33-2.95-.4-.17-1.07-.29-2.75-.36-5.05-.07-2.3-.24-4.06-.49-5.26-.82.86-1.62,2.3-2.42,4.3-.79,2-1.41,3.35-1.85,4.05-.35.56-.88.85-1.59.87-.71.02-1.19-.27-1.45-.89-.17-.48-.27-1-.29-1.58-.03-.57,0-1.26.06-2.06.06-.8.09-1.37.1-1.7Z"/>
  <path class="st0" d="M70.13,23.82c-.24-.05-.47-.32-.7-.83-.07-.57-.11-1.68-.14-3.33-.02-1.65-.14-2.93-.35-3.85-.02-.05-.09-.18-.21-.41-.12-.23-.19-.43-.23-.6s-.03-.34.02-.5c.05-.09.14-.2.29-.34.14-.14.23-.25.25-.34.05-.37.05-1.18.02-2.44-.04-1.26.01-2.07.16-2.44.12-.48.42-.88.89-1.21.47-.33.89-.29,1.24.13.33.35.5.76.52,1.24.02.48-.04.95-.19,1.41-.15.46-.24.95-.28,1.47-.04.53.06,1.01.29,1.44,1.06.08,2.04.24,2.94.5.9.26,1.72.69,2.47,1.29.75.6,1.28,1.34,1.58,2.21.28.78.21,1.59-.21,2.44-.42.84-1.01,1.53-1.77,2.05-1.19.79-2.31,1.4-3.38,1.81-1.07.42-2.14.52-3.23.31ZM72.1,21.26c1.06-.06,2.04-.38,2.93-.94.89-.57,1.33-1.28,1.31-2.15-.02-.55-.3-1.06-.84-1.53-.54-.47-1.18-.81-1.92-1.03-.74-.21-1.45-.27-2.11-.18-.02,2.63.2,4.58.64,5.84ZM82.03,14.73c0,.62.04,1.36.15,2.23.1.87.2,1.62.29,2.25.09.63.13,1.33.11,2.09-.02.77-.12,1.47-.32,2.11-.07.23-.31.44-.71.63-.4.19-.82.23-1.26.13-.44-.11-.69-.41-.76-.91-.35-4.08-.52-6.74-.52-8,0-1.19.21-3.12.6-5.8,0-.39.16-.75.47-1.1.31-.34.69-.57,1.14-.68.52-.16,1.02-.03,1.5.37.48.4.64.79.47,1.15-.77,1.64-1.16,3.48-1.17,5.52Z"/>
  <path class="st0" d="M95.55,12.51c.01-.15-.1-.39-.32-.72-.23-.32-.29-.59-.17-.81.31-.31.45-.88.4-1.7-.05-.82.13-1.4.55-1.72.51-.43,1.04-.68,1.59-.76.55-.08,1.04.08,1.47.48.23.18.38.53.45,1.03.07.5.16.78.27.82.95.01,1.83.08,2.63.2s1.63.31,2.49.59c.86.28,1.53.73,2.02,1.34.49.62.73,1.36.7,2.23-.02.97-.22,1.8-.62,2.49-.4.69-.95,1.24-1.67,1.65-.71.41-1.41.74-2.08,1-.68.25-1.48.53-2.41.82-.94.29-1.66.55-2.16.77-.14,1.88-.14,3.29.02,4.23.15.94.59,2.3,1.31,4.07,0,.08.07.18.19.31s.26.28.42.46c.16.18.29.32.38.44.37.6.15,1.02-.67,1.25-.82.23-1.53.24-2.13.04-.14-.04-.27-.1-.41-.17-.14-.08-.26-.15-.36-.22-.1-.07-.19-.17-.29-.32s-.17-.26-.23-.34c-.06-.08-.13-.22-.22-.42-.08-.2-.14-.34-.18-.44-.04-.1-.08-.26-.14-.48-.06-.22-.09-.38-.1-.47s-.04-.26-.11-.51c-.06-.25-.1-.4-.1-.45-.22-.95-.39-1.92-.51-2.92-.12-1-.18-2.01-.18-3.04,0-1.03,0-1.97.02-2.82.01-.84.05-1.85.09-3.03.05-1.18.08-2.14.09-2.88ZM99.72,12.32c-.48.56-.78,1.43-.9,2.63-.13,1.2.03,1.89.47,2.08.84.28,1.8.08,2.89-.61,1.08-.69,1.65-1.63,1.69-2.84.07-.9-.42-1.4-1.48-1.51-.49-.16-.99-.23-1.5-.2s-.9.17-1.16.45Z"/>
  <path class="st0" d="M120.63,23.43c-.21-.08-.46-.29-.72-.62s-.49-.48-.66-.45c-.35.01-.87.03-1.58.06s-1.27.03-1.68.02c-.41-.01-.9-.06-1.46-.13s-1.06-.23-1.5-.46c-.44-.24-.83-.56-1.17-.96-.58-.6-.9-1.41-.98-2.42-.08-1.01.08-1.86.45-2.56.43-.82.98-1.51,1.66-2.08.68-.56,1.35-.97,2.01-1.23.67-.26,1.3-.45,1.9-.56s1.1-.18,1.5-.2l.59-.07c.15-.27.18-.69.08-1.28s-.34-.88-.72-.89c-.39-.1-.89-.05-1.49.15-.6.2-1.02.36-1.26.47-.24.11-.64.35-1.19.69-.55.35-.97.6-1.27.74-.59.32-1.11.07-1.55-.76-.44-.83-.56-1.38-.36-1.66.81-.77,1.82-1.41,3.03-1.94,1.2-.52,2.46-.74,3.75-.67,1.3.08,2.29.59,2.97,1.53.46.62.77,1.34.95,2.17.18.83.25,1.58.2,2.26-.04.68-.09,1.51-.13,2.47-.05.96-.04,1.77.03,2.44.32,2.99.28,4.84-.12,5.56-.29.46-.72.58-1.28.37ZM119.24,19.29c.02-.34.05-.77.11-1.29.06-.52.11-.94.14-1.25s0-.69-.08-1.13c-.09-.43-.27-.85-.54-1.26-.36.21-.93.44-1.69.71-.76.27-1.4.5-1.9.69s-.94.54-1.3,1.02c-.36.49-.5,1.08-.4,1.79.08.47.6.81,1.54,1.04.95.22,1.82.28,2.62.16.8-.11,1.3-.27,1.49-.47Z"/>
  <path class="st0" d="M132.09,6.97c1.2.56,2.31,1.34,3.34,2.33,2.35,2.25,3.45,4.86,3.3,7.84-.1,1.68-.78,3.14-2.04,4.36-1.26,1.23-2.84,1.9-4.73,2.01-1.84.15-3.57-.52-5.2-2.01-.59-.34-.99-.92-1.2-1.73-.21-.81-.08-1.49.39-2.04.29-1.03.86-1.79,1.72-2.27.86-.48,1.82-.81,2.88-.99,1.06-.18,2.05-.01,2.97.49.92.51,1.53.76,1.83.74-.47-3.35-3.05-5.77-7.75-7.26-.68-.18-1.25-.32-1.73-.45-.48-.12-.75-.2-.84-.23-.52-.16-.62-.49-.29-.98.18-.24.39-.43.64-.58.92-.5,1.4-.75,1.45-.76.29-.06.74-.17,1.34-.31.6-.14,1.13-.26,1.61-.37s.94-.19,1.38-.26c.47-.05,1.16-.22,2.06-.5.9-.28,1.7-.47,2.41-.56.71-.09,1.4-.01,2.07.24.33.13.57.41.72.85.15.44.16.87.05,1.29-.03.23-.15.41-.36.54-.22.13-.43.17-.65.12-.66-.1-1.32-.14-1.96-.1-.64.04-1.43.15-2.37.32l-1.06.23ZM133.94,19.15c-.01-.77-.3-1.31-.87-1.64s-1.24-.45-2.02-.38l-.22.05c-1.27.17-1.86.66-1.76,1.46.05.48.13.87.23,1.14.1.28.26.48.48.62.22.14.42.22.59.24.17.02.48.06.93.12,1.82.23,2.7-.31,2.65-1.61Z"/>
  <path class="st0" d="M144.88,22.33c-1.48-.87-2.52-2.11-3.13-3.72-.61-1.61-.66-3.25-.15-4.91.27-.95.8-1.94,1.58-2.98.78-1.04,1.21-1.66,1.3-1.87.6-1.09,1.5-1.57,2.7-1.45,1.2.12,2.26.68,3.17,1.66.97,1.1,1.69,2.51,2.15,4.23.78,2.9-.26,5.8-3.12,8.68-.48.49-1.2.75-2.16.8-.96.05-1.74-.1-2.33-.45ZM146.33,18.07c1.01.24,1.75.03,2.23-.63.48-.66.61-1.5.39-2.54-.22-1.03-.71-1.97-1.47-2.81-.32-.35-.89-.08-1.7.81-1.1,1.17-1.59,2.3-1.44,3.39.11.92.77,1.51,1.99,1.78Z"/>
  <path class="st0" d="M155.01,13.13c-.25-1.32-.18-2.45.2-3.37.38-.92,1.16-1.24,2.33-.97.42.11.7.34.85.71.15.37.19.78.12,1.24s-.09.93-.07,1.41c.03.48.15.88.36,1.19.31-.35.6-.84.89-1.48.28-.64.52-1.21.71-1.71.19-.5.45-1.01.77-1.52.33-.51.69-.82,1.07-.94.39-.11.93-.09,1.64.06.36.32.59.52.69.6.12.36.26.99.42,1.89.16.9.34,1.58.54,2.02.15-.2.36-.5.61-.9.25-.4.47-.74.64-1.01.17-.27.39-.58.66-.92.27-.35.54-.62.8-.81s.54-.38.85-.55c.31-.18.64-.26.98-.27.35,0,.72.06,1.11.19.25.14.43.35.53.62.11.27.18.62.21,1.06s.07.72.11.86c.99,4.85,1.04,8.94.15,12.25-.1.59-.47.96-1.11,1.13-.65.17-1.26.09-1.83-.24-.05,0-.1-.06-.16-.18-.06-.12-.09-.28-.11-.46s0-.36.03-.52c.74-2.95.68-6.4-.18-10.34-.03-.32-.19-.32-.5,0-.13.13-.22.26-.26.4-1.11,2.01-1.92,4.43-2.43,7.25-.21.62-.68,1.08-1.41,1.38-.73.3-1.33.16-1.81-.43,0-1.09-.03-2.35-.11-3.78-.08-1.43-.28-2.56-.61-3.39-.87.79-1.47,1.79-1.79,2.99-.32,1.21-.63,2.69-.92,4.45-.29.53-.78.83-1.47.88s-1.15-.16-1.38-.65c-.41-.89-.66-2.21-.75-3.95-.09-1.74-.22-3.15-.37-4.23Z"/>
  <path class="st0" d="M177.13,23.5c-.24-.05-.47-.32-.7-.83-.07-.57-.11-1.68-.14-3.33-.02-1.65-.14-2.93-.35-3.85-.02-.05-.09-.18-.21-.41-.12-.23-.19-.43-.23-.6s-.03-.34.02-.5c.05-.09.14-.2.29-.34.14-.14.23-.25.25-.34.05-.37.05-1.18.02-2.44-.04-1.26.01-2.07.16-2.44.12-.48.42-.88.89-1.21.47-.33.89-.29,1.24.13.33.35.5.76.52,1.24.02.48-.04.95-.19,1.41-.15.46-.24.95-.28,1.47-.04.53.06,1.01.29,1.44,1.06.08,2.04.24,2.94.5.9.26,1.72.69,2.47,1.29.75.6,1.28,1.34,1.58,2.21.28.78.21,1.59-.21,2.44-.42.84-1.01,1.53-1.77,2.05-1.19.79-2.31,1.4-3.38,1.81-1.07.42-2.14.52-3.23.31ZM179.09,20.94c1.06-.06,2.04-.38,2.93-.94.89-.57,1.33-1.28,1.31-2.15-.02-.55-.3-1.06-.84-1.53-.54-.47-1.18-.81-1.92-1.03-.74-.21-1.45-.27-2.11-.18-.02,2.63.2,4.58.64,5.84ZM189.02,14.41c0,.62.04,1.36.15,2.23.1.87.2,1.62.29,2.25.09.63.13,1.33.11,2.09-.02.77-.12,1.47-.32,2.11-.07.23-.31.44-.71.63-.4.19-.82.23-1.26.13-.44-.11-.69-.41-.76-.91-.35-4.08-.52-6.74-.52-8,0-1.19.21-3.12.6-5.8,0-.39.16-.75.47-1.1.31-.34.69-.57,1.14-.68.52-.16,1.02-.03,1.5.37.48.4.64.79.47,1.15-.77,1.64-1.16,3.48-1.17,5.52Z"/>
  <path class="st0" d="M197.48,13.6l-.15.02c-.33,0-.68-.14-1.04-.43-.36-.29-.67-.64-.94-1.05-.27-.41-.43-.79-.49-1.13-.07-.49.08-.82.44-1.01.13-.07.27-.12.41-.14.52-.07,1.02.21,1.5.84.37-.64.8-1,1.27-1.07.16-.02.34,0,.52.05.32.11.51.34.56.69.02.6-.22,1.28-.71,2.03-.43.64-.89,1.05-1.38,1.2Z"/>
  <path class="st0" d="M197.05,21.63l-.15.02c-.33,0-.68-.14-1.04-.43-.36-.29-.67-.64-.94-1.05-.27-.41-.43-.79-.49-1.13-.07-.49.08-.82.44-1.01.13-.07.27-.12.41-.14.52-.07,1.02.21,1.5.84.37-.64.8-1,1.27-1.07.16-.02.34,0,.52.05.32.11.51.34.56.69.02.6-.22,1.28-.71,2.03-.43.64-.89,1.05-1.38,1.2Z"/>

</svg>